<?xml version="1.0" encoding="UTF-8"?><svg id="Rabbit" xmlns="http://www.w3.org/2000/svg" viewBox="0 0 1024 512"><defs><style>.cls-1{fill:#fff;}.cls-1,.cls-2{stroke-linejoin:round;stroke-width:8px;}.cls-1,.cls-2,.cls-3{stroke:#000;}.cls-2{fill:#966;}.cls-4{fill:#fc6;}.cls-5{fill:#ffc;}.cls-6{fill:#333;}.cls-3{fill:none;stroke-miterlimit:10;stroke-width:10px;}.cls-7{fill:#c96;}.cls-8{fill:#666;}</style></defs><g id="Idle"><g><g><path class="cls-4" d="M179.69,311.38c-3.99,.86-6.73,1.91-8.72,4.09-5.9,6.45-7.43,13.75-6.91,22.2,.46,7.34,1.75,15.43,3.22,23.93,1.31,7.64,4.12,15.71,3.5,24.05-.55,7.49-3.19,15.4-7.28,23.28-2.43,4.68-13.11,15.14-26.38,23.89-8.1,5.34-10.85,14.6-12.8,22.45-2.97,11.94-.93,21.74,3.32,22.75,8.24,1.95,15.54,4.27,22.64,4.03,8.2-.28,16.03-1.21,22.84-4.27s13.54-7.64,19.17-13.45c5.02-5.19,7.43-12.95,11.54-20.18,3.75-6.6,7.61-13.8,9.03-22.54,1.26-7.74,3.34-16.13,3.11-24.64s-2.56-16.44-3.88-24.52c-1.37-8.39-3.89-16.38-6.14-23.87-2.64-8.76-5.85-16.45-9.25-22.71-5.57-10.26-11.12-15.76-17.02-14.49Z"/><path class="cls-3" d="M179.69,311.38c-3.99,.86-6.73,1.91-8.72,4.09-5.9,6.45-7.43,13.75-6.91,22.2,.46,7.34,1.75,15.43,3.22,23.93,1.31,7.64,4.12,15.71,3.5,24.05-.55,7.49-3.19,15.4-7.28,23.28-2.43,4.68-13.11,15.14-26.38,23.89-8.1,5.34-10.85,14.6-12.8,22.45-2.97,11.94-.93,21.74,3.32,22.75,8.24,1.95,15.54,4.27,22.64,4.03,8.2-.28,16.03-1.21,22.84-4.27s13.54-7.64,19.17-13.45c5.02-5.19,7.43-12.95,11.54-20.18,3.75-6.6,7.61-13.8,9.03-22.54,1.26-7.74,3.34-16.13,3.11-24.64s-2.56-16.44-3.88-24.52c-1.37-8.39-3.89-16.38-6.14-23.87-2.64-8.76-5.85-16.45-9.25-22.71-5.57-10.26-11.12-15.76-17.02-14.49Z"/></g><g><g><polygon class="cls-5" points="328.38 251.1 320.62 262.88 312.87 246.47 302.47 234.83 282.49 240.05 274.69 220.79 259.21 224 248.19 236.7 233.77 237.4 219 236.36 203.53 221.32 186.95 242.78 183.62 221.06 199 214.68 202.98 199.28 220.15 201.06 229.12 186.77 243.96 188.28 257.74 178.64 273.33 177.74 284 192.77 294.76 201.2 310.59 203.26 318.34 215.71 340.55 219.03 341.97 236.74 328.38 251.1"/><polygon class="cls-3" points="328.38 251.1 320.62 262.88 312.87 246.47 302.47 234.83 282.49 240.05 274.69 220.79 259.21 224 248.19 236.7 233.77 237.4 219 236.36 203.53 221.32 186.95 242.78 183.62 221.06 199 214.68 202.98 199.28 220.15 201.06 229.12 186.77 243.96 188.28 257.74 178.64 273.33 177.74 284 192.77 294.76 201.2 310.59 203.26 318.34 215.71 340.55 219.03 341.97 236.74 328.38 251.1"/></g><g><path class="cls-4" d="M340.45,431.9c-11.08,13.87-21.84,18.77-34.85,14.16-10.49-3.72-21.31-13.37-34.05-22.43-10.24-7.28-20.99-15.91-33.2-23.14-11.25-6.66-24.14-9.7-37.45-13.78-12.91-.5-23.78-5.95-33.89-9.79-11.84-4.5-22.27-10.11-30.18-17.87-8.76-8.6-17.07-18.25-20.9-28.99-4.04-11.33-4.87-24.39-3.28-35.88,1.61-11.61,7.17-23.12,14.7-32.53,6.66-8.34,18.25-13.64,29.6-20.8,9.66-6.1,18.55-15.82,30.39-20.31,11.09-4.21,23.69-5.53,35.74-7.74s24.13-1.01,36.12-.66c12.3,.36,24.35,.39,35.72,4s20.92,10.84,30.51,18.5c9.59,7.66,18.52,15.29,24.65,25.74s9.46,21.81,12.53,33.72c2.99,11.62,6.41,23.38,6.92,35.52,.51,12.24,.39,24.63-1.27,36.38-1.77,12.54-6.92,23.9-10.73,34.66-4.48,12.64-10.42,22.89-17.08,31.23Z"/><path class="cls-3" d="M340.45,431.9c-11.08,13.87-21.84,18.77-34.85,14.16-10.49-3.72-21.31-13.37-34.05-22.43-10.24-7.28-20.99-15.91-33.2-23.14-11.25-6.66-24.14-9.7-37.45-13.78-12.91-.5-23.78-5.95-33.89-9.79-11.84-4.5-22.27-10.11-30.18-17.87-8.76-8.6-17.07-18.25-20.9-28.99-4.04-11.33-4.87-24.39-3.28-35.88,1.61-11.61,7.17-23.12,14.7-32.53,6.66-8.34,18.25-13.64,29.6-20.8,9.66-6.1,18.55-15.82,30.39-20.31,11.09-4.21,23.69-5.53,35.74-7.74s24.13-1.01,36.12-.66c12.3,.36,24.35,.39,35.72,4s20.92,10.84,30.51,18.5c9.59,7.66,18.52,15.29,24.65,25.74s9.46,21.81,12.53,33.72c2.99,11.62,6.41,23.38,6.92,35.52,.51,12.24,.39,24.63-1.27,36.38-1.77,12.54-6.92,23.9-10.73,34.66-4.48,12.64-10.42,22.89-17.08,31.23Z"/></g><path class="cls-7" d="M211.11,356.22c-13.58,2.11-25.82,.96-36.31-.98-13.33-2.47-22.94-9.89-31.27-17.16-9.38-8.19-18.1-17.21-21.16-28.87s-2.98-22.67,.06-34.75c-5.63,9.57-7.17,18.86-7.55,29.9s.67,22.31,5.21,32.61c4.29,9.73,10.86,19.44,19.43,27.09,7.73,6.9,18.9,9.44,30.03,13.42,9.55,3.41,19.6,7.61,31.6,8.07,13.12,4.02,23.97,11.87,35.06,18.42,12.05,7.12,24.06,13.22,34.16,20.39,12.57,8.91,24.17,15.85,34.52,19.51,12.82,4.54,23.36,2.9,34.29-10.75,5.27-6.59,10.32-14.12,14.25-23.57-10.51-1.32-22.17-6.99-35.56-13.34-10.83-5.14-23.34-9.31-35.31-15.28-11.4-5.68-22.32-13.09-34.18-17.59s-25.01-5.84-37.27-7.12Z"/><path d="M318.15,450.94c-8.43,0-16.84-4.81-25.72-9.89l-.91-.52c-5.01-2.86-9.93-6.52-15.14-10.39-2.34-1.74-4.76-3.54-7.25-5.3-3.32-2.36-7.26-4.22-11.42-6.2-4.08-1.93-8.29-3.93-12.3-6.57-3.27-2.15-6.27-4.75-9.18-7.26-3.95-3.41-7.68-6.64-12.02-8.85-7.09-3.6-14.85-5.98-23.08-8.5l-1.1-.34c-1.6-.06-3.19-.1-4.77-.15-9.05-.26-17.6-.51-25.36-2.93-9.27-2.89-18.61-7.75-27.76-14.44-7.52-5.5-14.35-13.1-20.87-23.25-4.66-7.25-5.89-15.36-7.08-23.2-.34-2.21-.65-4.3-1.04-6.37-.5-2.66-1.22-5.34-1.97-8.17-1.97-7.38-4-15.01-2.25-22.71,2.37-10.4,9.25-19.64,15.51-27.48,4.15-5.2,9.85-9.05,15.87-13.13,2.02-1.37,4.11-2.78,6.16-4.26,1.84-1.33,3.65-2.73,5.57-4.2,5.27-4.05,10.71-8.25,17.28-11.48,5.39-2.65,11.26-4.19,16.94-5.68,3.11-.82,6.33-1.66,9.42-2.68,2.87-.94,5.68-2.04,8.64-3.21,5.57-2.19,11.33-4.44,17.56-5.58,7.98-1.46,16.03-1.65,23.8-1.84,1.27-.03,2.54-.06,3.81-.1,2.5-.07,5.06-.22,7.54-.37,6.66-.4,13.54-.81,20.35,.27,7.85,1.24,18.05,3.17,27.36,7.02,7.13,2.95,12.99,7.84,18.66,12.57,1.46,1.22,2.97,2.48,4.47,3.68,8.16,6.52,13.98,14.09,18.6,20.63,.78,1.11,1.57,2.21,2.36,3.31,4.5,6.27,9.16,12.76,12.22,20.43,3.4,8.53,5.33,17.58,7.16,26.88,.65,3.28,1.68,6.58,2.78,10.06,1.75,5.53,3.55,11.25,3.8,17.27,.3,7.23-.5,14.48-1.28,21.48-.24,2.18-.48,4.34-.69,6.47-.92,9.66-3.17,19.09-5.15,27.42-1.93,8.08-4.72,16.22-9.07,26.42-3.46,8.12-8.64,14.43-13.2,19.99-.87,1.07-1.73,2.11-2.56,3.15h0c-7.51,9.39-13.99,17.51-23.7,17.97-.34,.02-.68,.02-1.03,.02Zm-50.46-237.74c-3.3,0-6.68,.2-10.17,.41-2.54,.15-5.16,.31-7.78,.38-1.28,.04-2.56,.07-3.85,.1-7.82,.19-15.21,.37-22.6,1.72-5.49,1-10.66,3.03-16.12,5.18-2.94,1.15-5.97,2.34-9.05,3.35-3.31,1.09-6.65,1.96-9.87,2.81-5.56,1.46-10.8,2.84-15.5,5.14-5.88,2.89-11.01,6.84-15.98,10.66-1.88,1.45-3.83,2.95-5.76,4.35-2.15,1.55-4.29,3-6.36,4.4-5.53,3.74-10.75,7.27-14.17,11.55-5.73,7.17-12.01,15.56-14.01,24.37-1.33,5.84,.38,12.24,2.18,19.01,.76,2.84,1.54,5.78,2.1,8.72,.42,2.21,.76,4.47,1.09,6.65,1.12,7.37,2.17,14.32,5.94,20.18,6,9.33,12.19,16.27,18.93,21.19,8.47,6.19,17.05,10.66,25.5,13.3,6.74,2.1,14.78,2.34,23.28,2.58,1.77,.05,3.55,.1,5.34,.17l.5,.02,2.06,.63c8.18,2.5,16.63,5.09,24.32,9,5.18,2.64,9.45,6.32,13.57,9.89,2.84,2.46,5.52,4.77,8.37,6.65,3.56,2.34,7.53,4.22,11.37,6.04,4.29,2.03,8.72,4.13,12.59,6.88,2.55,1.81,5.01,3.64,7.38,5.4,5.02,3.73,9.76,7.25,14.37,9.88l.92,.52c8.24,4.71,16.04,9.17,22.54,8.85,5.92-.28,10.71-5.91,18.03-15.07h0c.85-1.07,1.73-2.14,2.63-3.23,4.44-5.42,9.04-11.02,12.07-18.12,4.17-9.78,6.84-17.54,8.66-25.18,1.93-8.08,4.11-17.23,4.98-26.36,.21-2.19,.46-4.43,.7-6.59,.75-6.72,1.52-13.67,1.24-20.31-.21-4.99-1.78-9.98-3.45-15.27-1.12-3.53-2.27-7.19-3-10.9-1.82-9.27-3.59-17.58-6.75-25.5-2.71-6.8-6.89-12.62-11.32-18.79-.8-1.12-1.6-2.24-2.4-3.36-4.3-6.1-9.7-13.13-17.11-19.05-1.56-1.25-3.1-2.53-4.6-3.78-5.46-4.56-10.62-8.87-16.66-11.36-8.57-3.54-18.2-5.35-25.62-6.53-2.79-.44-5.62-.6-8.52-.6Z"/><g><path class="cls-5" d="M338.15,401.2c-1.21,3.61-3.93,5.47-4,9.13s-4.37,7.71-3.37,11.3,.03,8.84,1.96,12.07,9.63,2.12,12.31,4.79c2.58,2.57,3.62,6.88,6.86,8.86s7.69,.05,11.31,1.27,5.98,7.36,9.59,7.72,7.01-7.11,10.62-7.61,6.65,.23,10.04-1.14,7.74-.29,10.66-2.52,3.38-6.27,5.57-9.29,4.42-5.05,5.64-8.66,7.64-6.51,7.71-10.17-5.19-7.21-6.19-10.8,1.29-8.9-.64-12.12-5.05-6.32-7.73-8.98-4.73-7.33-7.97-9.31-8.23-1.76-11.85-2.97-8.32,2.5-11.93,2.14-6.61,3.01-10.22,3.51-9.06-6.2-12.46-4.83-8.81,1.7-11.73,3.93,.78,11.32-1.41,14.34-1.56,5.75-2.77,9.36Z"/><path class="cls-3" d="M336.52,400.66c-1.21,3.61-2,6.02-2.07,9.68s-3.37,7.34-2.37,10.93-2.98,10.23-1.05,13.45,10.05,2.39,12.73,5.06c2.58,2.57,4.95,5.51,8.19,7.49s8.14-1.35,11.76-.14,5.56,8.07,9.17,8.43,6.99-5.91,10.61-6.41,6.84,.41,10.24-.96,8.45,.36,11.38-1.88,1.98-7.85,4.16-10.87,2.29-5.6,3.5-9.21,8.18-5.69,8.26-9.35-4.02-6.93-5.02-10.52,.67-8.25-1.26-11.48-2.96-7.81-5.64-10.48-5.93-5.76-9.17-7.74-7.26-3.87-10.88-5.09-8.74,4-12.35,3.64-6.6,2.42-10.22,2.92-9.33-6.69-12.72-5.32-8.26,2.77-11.18,5,.15,10.72-2.04,13.74-2.82,5.48-4.03,9.08Z"/></g></g><g><path class="cls-4" d="M215.34,318.61c-4.05,.56-6.85,1.4-9,3.42-6.37,5.99-8.45,13.16-8.56,21.62-.1,7.35,.59,15.51,1.4,24.1,.73,7.72,2.89,15.97,1.64,24.24-1.12,7.43-4.33,15.11-9.01,22.66-2.78,4.48-14.2,14.13-28.09,21.85-8.48,4.71-11.95,13.72-14.49,21.4-3.87,11.68-2.56,21.64,1.6,22.96,8.06,2.57,15.18,5.41,22.28,5.71,8.2,.34,16.07,0,23.1-2.55,7.12-2.57,14.08-6.59,20.13-11.96,5.4-4.79,8.42-12.32,13.06-19.22,4.24-6.3,8.61-13.2,10.69-21.81,1.85-7.63,4.53-15.83,4.94-24.33,.4-8.15-1.28-16.58-1.99-24.74-.73-8.47-2.63-16.63-4.31-24.26-1.97-8.93-4.58-16.85-7.5-23.34-4.78-10.66-9.91-16.57-15.88-15.75Z"/><path class="cls-3" d="M215.34,318.61c-4.05,.56-6.85,1.4-9,3.42-6.37,5.99-8.45,13.16-8.56,21.62-.1,7.35,.59,15.51,1.4,24.1,.73,7.72,2.89,15.97,1.64,24.24-1.12,7.43-4.33,15.11-9.01,22.66-2.78,4.48-14.2,14.13-28.09,21.85-8.48,4.71-11.95,13.72-14.49,21.4-3.87,11.68-2.56,21.64,1.6,22.96,8.06,2.57,15.18,5.41,22.28,5.71,8.2,.34,16.07,0,23.1-2.55,7.12-2.57,14.08-6.59,20.13-11.96,5.4-4.79,8.42-12.32,13.06-19.22,4.24-6.3,8.61-13.2,10.69-21.81,1.85-7.63,4.53-15.83,4.94-24.33,.4-8.15-1.28-16.58-1.99-24.74-.73-8.47-2.63-16.63-4.31-24.26-1.97-8.93-4.58-16.85-7.5-23.34-4.78-10.66-9.91-16.57-15.88-15.75Z"/></g><g><path class="cls-4" d="M335.18,332.18c-9.52,0-18.8,1.24-27.22,2.83-9.87,1.86-18.43,4.91-24.36,11.17-5.46,5.76-8.83,13.78-8.83,25.2,0,6.93-.89,14.39,.23,21.6s5.01,13.6,7.38,20.3c2.42,6.86,5.07,13.44,9.03,19.24,4.07,5.95,8.72,11.35,14.63,15.46-2.95-.53-22.81-6.83-25.75-7.35-8.25-1.45-15.5-.02-22.12,1.69-8.04,2.08-14.43,5.61-19.47,10.08-7.32,6.49-11.38,13.47-10.71,18.48,.74,5.57,6.33,8.46,16.11,9.63,5.63,.67,12.57,1.68,20.49,1.46,6.23-.17,13.06-1.64,20.42-2.14,7.43-.5,14.27-1.22,20.45-1.27,7.93-.06,14.84,1.83,20.51,1.57,9.67-.44,16.73-2.61,18.92-7.74,.97-2.28,3.88-12.19,8.07-24.39,2.58-7.5,4.52-16.22,6.76-24.7s4.56-17.42,5.24-24.97c.86-9.67,1.94-19.1,1.43-27.7-.63-10.53-2.62-19.95-7.07-26.69-4.78-7.26-12.63-11.75-24.14-11.75Z"/><path class="cls-3" d="M335.18,332.18c-9.52,0-18.8,1.24-27.22,2.83-9.87,1.86-18.43,4.91-24.36,11.17-5.46,5.76-8.83,13.78-8.83,25.2,0,6.93-.89,14.39,.23,21.6s5.01,13.6,7.38,20.3c2.42,6.86,5.07,13.44,9.03,19.24,4.07,5.95,8.72,11.35,14.63,15.46-2.95-.53-22.81-6.83-25.75-7.35-8.25-1.45-15.5-.02-22.12,1.69-8.04,2.08-14.43,5.61-19.47,10.08-7.32,6.49-11.38,13.47-10.71,18.48,.74,5.57,6.33,8.46,16.11,9.63,5.63,.67,12.57,1.68,20.49,1.46,6.23-.17,13.06-1.64,20.42-2.14,7.43-.5,14.27-1.22,20.45-1.27,7.93-.06,14.84,1.83,20.51,1.57,9.67-.44,16.73-2.61,18.92-7.74,.97-2.28,3.88-12.19,8.07-24.39,2.58-7.5,4.52-16.22,6.76-24.7s4.56-17.42,5.24-24.97c.86-9.67,1.94-19.1,1.43-27.7-.63-10.53-2.62-19.95-7.07-26.69-4.78-7.26-12.63-11.75-24.14-11.75Z"/></g><g><g><path class="cls-4" d="M212.97,115.7c-.91,12.55-.49,24.82-2.69,35.72-2.65,13.16-6.97,24.78-10.95,34.17-6.73,15.84-15.48,23.66-23.71,23.07s-10.98-11.47-12.37-29.19c-.8-10.15-2.07-21.9-4.16-34.44-1.83-10.96-2.93-22.68-7.61-33.78s-7.58-22.04-9.17-32.4-.82-21.07,3.36-32.82c3.23-9.07,5.95-20.22,13.9-30.96,5.8-7.84,20.28,3.34,31.94,21.82,6.62,10.49,10.98,24.2,15.14,38.34,3.92,13.32,7.3,26.91,6.32,40.47Z"/><path class="cls-3" d="M212.97,115.7c-.91,12.55-.49,24.82-2.69,35.72-2.65,13.16-6.97,24.78-10.95,34.17-6.73,15.84-15.48,23.66-23.71,23.07s-10.98-11.47-12.37-29.19c-.8-10.15-2.07-21.9-4.16-34.44-1.83-10.96-2.93-22.68-7.61-33.78s-7.58-22.04-9.17-32.4-.82-21.07,3.36-32.82c3.23-9.07,5.95-20.22,13.9-30.96,5.8-7.84,20.28,3.34,31.94,21.82,6.62,10.49,10.98,24.2,15.14,38.34,3.92,13.32,7.3,26.91,6.32,40.47Z"/></g><path class="cls-7" d="M197.39,132.32c-4.88,36.65-16.69,65.32-26.39,64.03-9.7-1.29,9.25-36.5,.54-68.7-6.2-22.93-21.32-43.04-3.41-68.49,7.78-11.05,34.13,36.51,29.26,73.16Z"/><path d="M176.51,214.48c-.29,0-.58-.01-.87-.03-5.87-.42-13.33-5.36-15.48-26.44-.38-3.73-.29-7.72-.19-11.94,.1-4.61,.21-9.38-.27-14.29-.23-2.34-.41-4.67-.6-7.14-.46-6.05-.93-12.31-2.26-18.46-2.14-9.93-4.47-17.72-7.33-24.51-1.4-3.32-3.23-6.49-5.01-9.57-2.57-4.45-5.23-9.05-6.49-14.03-2.31-9.11-1.43-18.18-.59-26.95,.71-7.41,3.99-14.24,7.46-21.48,.52-1.08,1.05-2.18,1.58-3.31,.71-1.51,1.4-3.07,2.13-4.72,2.48-5.62,5.29-11.98,9.95-18.28,2.07-2.8,4.96-4.3,8.36-4.33,8.92-.08,18.04,10.01,22.68,16.03,6.09,7.91,11.9,17.74,16.35,27.7,3.95,8.84,7.19,19.11,9.66,30.53,2.03,9.42,2.59,19.91,1.71,32.09h0c-.26,3.66-.26,7.41-.25,11.04,0,5.37,.02,10.92-.86,16.2-1.35,8.18-3.63,15.92-5.64,22.75-.38,1.28-.75,2.54-1.1,3.77-2.33,8.07-6.08,14.6-9.38,20.37-.9,1.57-1.74,3.04-2.51,4.47-5.38,9.96-11.87,20.52-21.03,20.52Zm-9.5-197.76h-.04c-.96,0-1.61,.36-2.23,1.2-4.15,5.6-6.66,11.3-9.1,16.8-.75,1.7-1.46,3.3-2.21,4.9-.54,1.14-1.07,2.26-1.6,3.35-3.3,6.89-6.16,12.83-6.73,18.88-.78,8.12-1.59,16.51,.39,24.32,1,3.93,3.28,7.88,5.69,12.06,1.9,3.28,3.86,6.67,5.44,10.43,3.05,7.24,5.52,15.47,7.76,25.88,1.43,6.66,1.93,13.19,2.41,19.5,.18,2.42,.36,4.71,.58,6.97,.53,5.38,.41,10.61,.31,15.22-.09,3.97-.17,7.73,.16,10.98,1.2,11.76,4.4,19.24,8.35,19.53,4.83,.35,10.32-8.61,14.56-16.46,.82-1.51,1.69-3.03,2.61-4.64,3.09-5.39,6.59-11.49,8.66-18.67,.36-1.25,.74-2.52,1.11-3.81,2.04-6.94,4.16-14.12,5.43-21.83,.77-4.65,.76-9.64,.75-14.92,0-3.77-.01-7.67,.27-11.61,.83-11.43,.32-21.21-1.56-29.9-2.35-10.9-5.43-20.67-9.16-29.01-4.21-9.42-9.68-18.7-15.41-26.14-7.42-9.62-13.49-13.03-16.45-13.03Z"/></g><g><g><path class="cls-4" d="M93.85,116.78c2.47,12.34,6.05,24.07,6.83,35.15,.95,13.39-.07,25.73-1.41,35.85-2.26,17.06-8.57,27-16.66,28.62s-13.6-8.21-19.66-24.91c-3.48-9.57-7.81-20.57-13.18-32.1-4.69-10.08-8.94-21.04-16.41-30.49-7.71-9.76-13.23-19.2-17.52-28.76-4.5-10.02-6.42-20.11-5.52-32.56,.69-9.6,.48-21.04,5.28-33.51,3.5-9.1,20.36-2.22,36.52,12.49,9.17,8.34,17.11,20.35,24.89,32.87,7.32,11.79,14.16,24.03,16.83,37.36Z"/><path class="cls-3" d="M93.85,116.78c2.47,12.34,6.05,24.07,6.83,35.15,.95,13.39-.07,25.73-1.41,35.85-2.26,17.06-8.57,27-16.66,28.62s-13.6-8.21-19.66-24.91c-3.48-9.57-7.81-20.57-13.18-32.1-4.69-10.08-8.94-21.04-16.41-30.49-7.71-9.76-13.23-19.2-17.52-28.76-4.5-10.02-6.42-20.11-5.52-32.56,.69-9.6,.48-21.04,5.28-33.51,3.5-9.1,20.36-2.22,36.52,12.49,9.17,8.34,17.11,20.35,24.89,32.87,7.32,11.79,14.16,24.03,16.83,37.36Z"/></g><path class="cls-7" d="M83.24,136.95c5.07,36.62,1.33,67.4-8.36,68.74s-.82-37.65-17.79-66.36c-12.09-20.44-32.02-35.79-21.55-65.1,4.55-12.72,42.63,26.09,47.7,62.71Z"/><path d="M85.02,221.7c-.28,.08-.56,.14-.85,.2-5.77,1.16-14.27-1.61-21.97-21.36-1.36-3.49-2.34-7.36-3.37-11.46-1.13-4.47-2.3-9.09-4.07-13.7-.85-2.19-1.64-4.39-2.48-6.72-2.06-5.71-4.18-11.62-7.1-17.19-4.71-9-9.03-15.89-13.6-21.67-2.23-2.82-4.85-5.4-7.38-7.89-3.67-3.6-7.45-7.33-9.99-11.79-4.65-8.16-6.23-17.14-7.76-25.82-1.29-7.33,.05-14.79,1.46-22.69,.21-1.18,.43-2.38,.64-3.61,.28-1.64,.53-3.33,.79-5.12,.89-6.08,1.91-12.96,4.72-20.27,1.25-3.25,3.64-5.46,6.91-6.4,8.57-2.45,20.05,4.84,26.13,9.41,7.98,6,16.2,13.93,23.14,22.34,6.16,7.46,12.03,16.5,17.45,26.85,4.47,8.54,7.81,18.5,10.21,30.47h0c.72,3.6,1.73,7.21,2.7,10.71,1.44,5.17,2.93,10.52,3.49,15.84,.87,8.24,.74,16.31,.63,23.43-.02,1.33-.04,2.64-.06,3.93-.1,8.4-1.97,15.7-3.61,22.13-.45,1.75-.87,3.4-1.23,4.98-2.53,11.04-5.97,22.94-14.8,25.38ZM23.15,33.64h-.03c-.92,.27-1.45,.78-1.83,1.76-2.51,6.51-3.41,12.66-4.29,18.62-.27,1.84-.53,3.57-.82,5.31-.21,1.24-.43,2.46-.65,3.66-1.35,7.52-2.51,14.01-1.46,19.99,1.41,8.03,2.87,16.34,6.86,23.34,2.01,3.53,5.26,6.72,8.7,10.1,2.7,2.66,5.49,5.4,8.03,8.61,4.87,6.17,9.44,13.44,14.38,22.88,3.16,6.04,5.38,12.2,7.52,18.15,.82,2.29,1.6,4.45,2.42,6.56,1.95,5.04,3.23,10.11,4.36,14.59,.97,3.85,1.89,7.5,3.08,10.54,4.29,11.01,9.37,17.37,13.26,16.59,4.75-.95,7.65-11.05,9.64-19.74,.38-1.67,.82-3.37,1.28-5.17,1.54-6.02,3.29-12.84,3.37-20.31,.02-1.3,.04-2.62,.06-3.97,.12-7.24,.24-14.72-.58-22.49-.5-4.68-1.83-9.49-3.25-14.58-1.01-3.63-2.06-7.39-2.83-11.26-2.25-11.24-5.35-20.53-9.48-28.4-5.17-9.88-10.75-18.47-16.57-25.52-6.56-7.96-14.31-15.44-21.82-21.08-9.71-7.3-16.47-8.96-19.33-8.17Z"/></g><g><g><polygon class="cls-1" points="78.98 308.42 84.86 347.05 96.25 349.01 102.56 312.49 78.98 308.42"/><polygon class="cls-1" points="126.14 316.57 102.56 312.49 96.25 349.01 109.26 351.26 126.14 316.57"/></g><g><path class="cls-4" d="M185.54,254.41c-2.64,9.56-4.89,17.81-8.56,24.46-4.55,8.23-10.36,14.43-16.65,19.86s-13.53,9.72-21.67,14.16c-6.95,3.79-15.37,6.07-23.8,10.38-7.79,3.98-15.28,6.21-22.69,2.98-6.57-2.87-12.74-8.78-18.26-15.62-4.69-5.81-8.58-13.02-12.04-20.63-3.23-7.1-5.85-14.77-7.64-22.6-1.8-7.85-3.95-15.89-3.95-23.69s.82-15.25,2.08-22.37c1.33-7.5,4.04-14.64,6.97-21.31s7.29-12.95,12.19-18.64c4.68-5.43,10.83-9.38,17.44-13.53,5.9-3.7,11.97-7.94,19.55-10.44,6.56-2.16,13.89-4.52,21.82-5.67,8.12,2.14,14.73,6.56,21.01,9.22,7.9,3.34,14.21,6.84,19.54,10.92,6.71,5.14,12.28,9.9,15.6,16.06,3.63,6.73,6.39,13.98,6.93,21.71,.5,7.19-.62,14.92-1.95,22.79-1.21,7.16-3.85,14.39-5.94,21.98Z"/><path class="cls-3" d="M185.54,254.41c-2.64,9.56-4.89,17.81-8.56,24.46-4.55,8.23-10.36,14.43-16.65,19.86s-13.53,9.72-21.67,14.16c-6.95,3.79-15.37,6.07-23.8,10.38-7.79,3.98-15.28,6.21-22.69,2.98-6.57-2.87-12.74-8.78-18.26-15.62-4.69-5.81-8.58-13.02-12.04-20.63-3.23-7.1-5.85-14.77-7.64-22.6-1.8-7.85-3.95-15.89-3.95-23.69s.82-15.25,2.08-22.37c1.33-7.5,4.04-14.64,6.97-21.31s7.29-12.95,12.19-18.64c4.68-5.43,10.83-9.38,17.44-13.53,5.9-3.7,11.97-7.94,19.55-10.44,6.56-2.16,13.89-4.52,21.82-5.67,8.12,2.14,14.73,6.56,21.01,9.22,7.9,3.34,14.21,6.84,19.54,10.92,6.71,5.14,12.28,9.9,15.6,16.06,3.63,6.73,6.39,13.98,6.93,21.71,.5,7.19-.62,14.92-1.95,22.79-1.21,7.16-3.85,14.39-5.94,21.98Z"/></g><path class="cls-2" d="M117.11,298.8c-8.94-1.84-12.39,3.94-15.8,11.3-2.63-5.78-2.6-10.51-13.11-11.3-7.38-.55,2.63-13.41,14.46-13.41,16.03,0,21.71,14.9,14.46,13.41Z"/><g><path class="cls-8" d="M100.9,244.05c0,4.31-1.61,8.47-2.5,12.16-1.06,4.41-3.13,8.05-5.13,11.01-2.71,3.99-5.91,7.21-9.62,7.21s-6.7-3.36-9.41-7.35c-2.01-2.96-3.2-6.71-4.26-11.12-.89-3.7-.64-7.59-.64-11.91s.02-8.14,.91-11.84c1.06-4.41,.79-9.04,2.79-12,2.71-3.99,6.89-7.15,10.61-7.15s8.24,2.93,10.95,6.92c2.01,2.96,3.79,7.25,4.84,11.66,.89,3.7,1.46,8.1,1.46,12.42Z"/><g><path class="cls-5" d="M100.45,240.26c0,3.57,.09,7.27-.69,10.32-.93,3.62-2.45,7.27-4.21,9.68-2.31,3.15-6.31,5.16-9.45,5.16s-5.62-3.13-7.93-6.28c-1.76-2.4-3.41-5.3-4.34-8.92-.78-3.05-.2-6.4-.2-9.97s-1.4-7.13-.62-10.18c.93-3.62,3.16-6.48,4.92-8.88,2.31-3.15,5.03-4.67,8.17-4.67s6.25,1.23,8.55,4.39c1.76,2.4,2.33,5.87,3.26,9.49,.78,3.05,2.54,6.28,2.54,9.85Z"/><polygon class="cls-6" points="83.72 237.33 89.59 234.43 91.31 239.42 89.59 243.5 90.09 248.9 84.61 246.2 81.35 247.4 78.48 245.53 77.77 242.53 73.35 239.66 76.82 236.84 79.93 233 83.72 237.33"/></g></g><g><path class="cls-8" d="M158.33,247.01c.74,4.23,.54,7.9-.26,11.66-.9,4.23-2.06,7.74-4.52,10.67-2.69,3.21-5.61,5.76-9.67,6.47s-7.72-.62-11.34-2.71c-3.32-1.92-6.57-4.28-8.85-7.95-2.03-3.27-3.06-7.17-3.81-11.4s.1-7.99,.9-11.76c.9-4.23,2.48-7.36,4.94-10.29,2.69-3.21,5.03-6.77,9.09-7.48s8.03,.88,11.65,2.98c3.32,1.92,6.99,4.24,9.27,7.91,2.03,3.27,1.84,7.67,2.58,11.9Z"/><g><path class="cls-5" d="M153.34,244.39c0,5.34-2.48,9.94-5.55,13.53-3.28,3.84-7.64,7.32-12.79,7.32s-9.28-3.68-12.57-7.51c-3.07-3.59-6.3-8.01-6.3-13.34s2.91-10.04,5.97-13.62c3.28-3.84,7.75-7.22,12.89-7.22s10.21,2.87,13.5,6.71c3.07,3.59,4.84,8.8,4.84,14.14Z"/><polygon class="cls-6" points="140.01 233.94 142.16 236.7 145.86 238.39 147.14 242.16 147.32 246.26 146.7 250.63 141.57 251.6 138.32 252.19 135.9 251.36 130.77 253.7 129.57 249.5 128.13 245.79 130.19 242.21 133.34 240.03 131.96 234.37 136.2 233.35 140.01 233.94"/></g></g></g></g></g><g id="Jump"><g><g><g><polygon class="cls-5" points="849.88 168.08 848.28 182.08 835.08 169.11 821.5 162.24 804.54 176.72 792.02 157.93 777.47 164.15 768.17 177.15 754.3 180.92 738.65 183.63 716.93 172.04 712.59 202.53 693.84 194.34 693.44 184.19 686.66 172.9 704.31 169.66 707.06 152.1 722.21 149.19 731.31 133.83 745.22 126.25 762.22 136.5 775.3 138.73 789.05 130.32 801.93 136.04 820.71 121.35 832.42 133.05 843.75 142.98 853.6 153.74 849.88 168.08"/><polygon class="cls-3" points="849.88 168.08 848.28 182.08 835.08 169.11 821.5 162.24 804.54 176.72 792.02 157.93 777.47 164.15 768.17 177.15 754.3 180.92 738.65 183.63 716.93 172.04 712.59 202.53 693.84 194.34 693.44 184.19 686.66 172.9 704.31 169.66 707.06 152.1 722.21 149.19 731.31 133.83 745.22 126.25 762.22 136.5 775.3 138.73 789.05 130.32 801.93 136.04 820.71 121.35 832.42 133.05 843.75 142.98 853.6 153.74 849.88 168.08"/></g><path class="cls-4" d="M936.42,308.11c-5.56,12.7-12.96,21.36-26.03,22.52-10.16,.9-22.55-2.92-36.23-5.44-10.94-2.01-22.7-5.47-35.37-7.88-11.38-2.17-23.8-.51-36.23-1.78-11.71-1.2-23.61-5.53-35.97-4.96-12.55,3.1-24.4,5.96-35.66,6.3-13.01,.38-25.77,1.4-36.63-1.24-12.8-3.1-24.54-9.02-33.66-15.21-11.05-7.49-19.03-18.16-23.48-28.22-4.98-11.27-1.5-22.82,3.6-34.47,4.26-9.74,7.83-23.5,18.91-33.73,8.72-8.04,21.05-14.01,32.83-21.22,10.61-6.49,23.3-9.96,35.59-15.02,11.8-4.86,23.32-10.88,36-13.76,12.63-2.87,25.53-1.95,38.37-2.23s25.73-1.56,38.26,1.46c11.57,2.79,21.47,8.01,31.13,13.28,10.29,5.61,20.63,10.58,28.72,18.24s16.35,16.67,22.37,26.04c6.36,9.9,8.78,21.48,12.37,31.86,3.95,11.4,5.48,22.34,6.05,32.99,.67,12.57-.83,23.05-4.94,32.45Z"/><path class="cls-7" d="M767.64,283.3c-13.12,4.95-26.11,6.84-37.79,8.34-14.09,1.81-26.72-1.81-38.13-4.11-14.06-2.84-27.49-4.91-36.39-12.32-10.64-8.85-16.58-19.15-17.99-31.59-5.73,10.65-3.84,20.3,2.93,31.86,5.35,9.14,13.37,19.15,24.91,26.27,9.42,5.82,21.04,11.11,33.71,14.19,10.97,2.66,23.41-.62,36.28-.89,11.35-.24,23.4,1.06,35.84-2.05,5.71-3.9,17.56-.3,33.07,2.2,10.13,1.63,22.04,1.38,33.93,3.78,11.1,2.24,22.74,3.32,33.77,4.92,12.21,1.77,23.7,2.54,33.82,1.9,13.68-.86,24.13-3.83,29.46-12.77,3.82-6.41,6.31-15,7.08-23.63-9.86,1.43-22.48,3.64-35.71,2.42-10.86-1-22.33-5.2-34.55-6.86-11.31-1.54-22.88-4.58-34.68-5.85-11.69-1.26-23.68-.7-35.22-.91-12.04-.22-23.19,3.29-34.35,5.08Z"/><path d="M920.09,330.56c-9.11,2.55-20.15,1.23-31.82-.17l-1.2-.14c-6.58-.78-13.39-2.23-20.59-3.76-3.24-.69-6.58-1.4-9.99-2.07-4.55-.89-9.56-1.2-14.87-1.52-5.19-.32-10.56-.65-15.97-1.55-4.41-.74-8.71-1.92-12.87-3.05-5.65-1.55-11-3.01-16.59-3.47-9.13-.75-18.49-.31-28.4,.15l-1.32,.06c-1.75,.44-3.49,.88-5.21,1.32-9.89,2.52-19.23,4.91-28.6,5.31-11.19,.48-23.26-.6-35.88-3.2-10.37-2.14-20.84-6.18-32.02-12.36-7.98-4.41-12.61-10.55-17.09-16.49-1.26-1.68-2.46-3.26-3.72-4.8-1.63-1.98-3.49-3.92-5.46-5.96-5.13-5.33-10.43-10.84-11.67-17.55-1.67-9.06,2.01-18.55,5.59-26.74,2.37-5.43,6.96-10.24,11.82-15.33,1.63-1.71,3.31-3.47,4.93-5.28,1.45-1.62,2.84-3.29,4.31-5.06,4.04-4.84,8.22-9.85,14.01-14.43,4.75-3.75,10.47-6.77,16-9.68,3.03-1.6,6.17-3.25,9.09-5,2.72-1.63,5.3-3.35,8.04-5.19,5.13-3.44,10.44-6.99,16.7-9.78,8.03-3.58,16.65-6.17,24.98-8.67,1.36-.41,2.72-.82,4.08-1.23,2.67-.81,5.38-1.71,8-2.58,7.03-2.33,14.31-4.74,22.11-5.93,8.99-1.37,20.8-2.91,32.43-2.63,8.9,.21,17.23,2.37,25.28,4.45,2.08,.54,4.22,1.09,6.32,1.6,11.47,2.77,20.84,7.08,28.49,10.94,1.3,.65,2.6,1.3,3.9,1.94,7.42,3.67,15.09,7.48,21.52,12.71,7.15,5.82,12.91,12.5,18.67,19.41,2.03,2.44,4.5,4.77,7.1,7.23,4.14,3.91,8.42,7.96,11.14,12.71,3.27,5.71,5.34,11.77,7.35,17.63,.62,1.82,1.24,3.63,1.89,5.4,2.93,8.03,4.34,16.28,5.58,23.56,1.21,7.06,1.5,14.45,.94,23.94-.44,7.56-3.47,14.19-6.14,20.04-.51,1.12-1.01,2.22-1.49,3.3h0c-4.29,9.81-8,18.28-18.31,21.58-.36,.12-.73,.23-1.1,.33Zm-151.25-175.57c-3.57,1-7.14,2.18-10.82,3.4-2.68,.89-5.45,1.81-8.26,2.66-1.37,.42-2.74,.83-4.12,1.24-8.38,2.52-16.3,4.89-23.73,8.21-5.52,2.46-10.28,5.65-15.32,9.02-2.71,1.81-5.5,3.68-8.42,5.43-3.14,1.87-6.39,3.58-9.53,5.24-5.41,2.85-10.52,5.54-14.66,8.81-5.18,4.09-9.12,8.82-12.93,13.38-1.44,1.73-2.94,3.52-4.46,5.23-1.69,1.89-3.41,3.7-5.08,5.45-4.45,4.67-8.66,9.08-10.61,13.55-3.28,7.49-6.65,16.12-5.23,23.79,.94,5.09,5.38,9.71,10.09,14.6,1.98,2.05,4.02,4.18,5.82,6.37,1.35,1.65,2.64,3.36,3.89,5.01,4.2,5.58,8.17,10.84,14.63,14.41,10.28,5.68,19.79,9.37,29.08,11.29,11.67,2.41,22.76,3.41,32.97,2.97,8.14-.35,16.92-2.59,26.21-4.96,1.93-.49,3.88-.99,5.84-1.48l.55-.14,2.48-.12c9.86-.46,20.05-.94,29.94-.12,6.68,.55,12.78,2.22,18.69,3.84,4.07,1.11,7.91,2.16,11.75,2.81,4.8,.8,9.86,1.11,14.74,1.41,5.46,.34,11.1,.68,16.41,1.72,3.5,.68,6.89,1.41,10.17,2.1,6.94,1.48,13.49,2.87,19.55,3.59l1.2,.14c10.82,1.29,21.07,2.51,27.97,.3,6.29-2.01,9.17-7.98,13.36-17.54h0c.49-1.11,1-2.24,1.53-3.39,2.6-5.69,5.29-11.57,5.67-18.19,.53-9.11,.26-16.14-.88-22.82-1.21-7.06-2.57-15.07-5.34-22.66-.66-1.82-1.31-3.69-1.93-5.5-1.93-5.62-3.92-11.43-6.92-16.68-2.26-3.94-5.99-7.47-9.94-11.21-2.64-2.5-5.38-5.08-7.67-7.84-5.74-6.89-11.03-13.03-17.67-18.43-5.7-4.63-12.59-8.05-19.88-11.66-1.32-.65-2.64-1.31-3.96-1.97-7.13-3.59-15.83-7.61-26.24-10.12-2.19-.53-4.39-1.1-6.5-1.65-7.76-2.01-15.09-3.91-22.63-4.09-10.7-.25-21.84,1.2-30.35,2.5-3.2,.49-6.32,1.22-9.45,2.09Z"/><g><path class="cls-5" d="M920.54,284.49c.19,3.84-1.54,6.09,.35,9.49,1.78,3.2,.3,8.86,3.33,11.51,2.74,2.4,4.83,7.4,8.4,9.23,3.27,1.68,9.51-3.11,13.33-1.99,3.56,1.04,6.59,4.48,10.51,4.96,3.7,.46,7.48-2.99,11.41-3.1s8.13,5.04,11.74,4.39c3.85-.68,5.37-8.78,8.81-10,3.71-1.32,6.97-1.22,10.08-3.07,3.41-2.03,7.86-1.59,10.38-4.14,2.79-2.83,2.5-6.76,3.97-10.07,1.55-3.49,3.08-5.77,2.89-9.6-.19-3.84,4.15-9.43,2.25-12.84-1.78-3.2-8.22-3.52-11.25-6.18-2.74-2.4-3.78-8.18-7.35-10.02-3.27-1.68-7.55-2.8-11.37-3.92-3.56-1.04-7.44-4.31-11.36-4.79-3.7-.46-8.23,1.64-12.15,1.74s-7.25,5.1-10.86,5.74c-3.85,.68-6.09,4.73-9.53,5.95-3.71,1.32-10.27-4.32-13.37-2.47-3.41,2.03-8.66,3.09-11.18,5.65-2.79,2.83,2.34,11.13,.87,14.44-1.55,3.49-.11,5.25,.08,9.08Z"/><path class="cls-3" d="M918.69,284.58c.19,3.84,.6,5.84,2.49,9.24,1.78,3.2,.98,7.91,4.02,10.56,2.74,2.4,2.88,10.41,6.46,12.24,3.27,1.68,9.94-3.13,13.76-2.01,3.56,1.04,7.16,2.5,11.07,2.98,3.7,.46,7.43-4.58,11.35-4.69s8.03,5.9,11.64,5.26c3.85-.68,5.67-7.52,9.11-8.74,3.71-1.32,7.18-1.04,10.29-2.89,3.41-2.03,8.72-1,11.24-3.55,2.79-2.83,.75-8.21,2.22-11.51,1.55-3.49,.69-5.39,.5-9.22-.19-3.84,5.16-8.51,3.26-11.92-1.78-3.2-6.94-3.86-9.97-6.51-2.74-2.4-3.99-7.25-7.57-9.08-3.27-1.68-6.44-5.34-10.26-6.46-3.56-1.04-7.85-2.21-11.77-2.69-3.7-.46-8.11-.88-12.04-.78s-7.15,6.78-10.76,7.42c-3.85,.68-6.25,4.11-9.68,5.33-3.71,1.32-10.61-4.8-13.72-2.95-3.41,2.03-7.9,4.14-10.42,6.7-2.79,2.83,1.57,10.61,.1,13.92-1.55,3.49-1.51,5.54-1.33,9.37Z"/></g></g><g><path class="cls-4" d="M805.56,279.23c1.86-9.49,5.61-16.93,9.77-22.13,5.55-6.94,13.21-9.88,21.44-9.25,6.82,.53,13.93,4.18,21.54,9.86,5.66,4.23,12.96,8.46,18.61,15.52,5.36,6.69,12.9,10.57,22.36,12.79,8.78,2.06,17.99,4.95,26.4,5.97,12.29,1.49,23.42,1.34,25.09,7.69,4.36,3.64,9.45,8.04,14.62,13.71,4.27,4.69,7.44,11.08,12,16.49,6.69,7.94,11.72,15.68,16.14,21.96,8.09,11.48,11.42,18.47,6.7,23-3.24,3.11-10.28,7.08-18.77,5.25-5.85-1.26-11.78-5.8-17.5-10.46-4.71-3.84-7.31-9.81-10.61-16.49-5.06-10.24-11.87-20.13-15.77-29.57-1.69,1.89-3.3,4.41-5.38,6.54-7.04,7.21-14.55,12.91-22.14,16.88-8.71,4.56-17.92,6.82-26.66,7.83-9.55,1.1-18.8-.54-27.43-2.73-8.17-2.07-16.67-3.63-23.51-7.83-7.15-4.38-12.31-11.23-17.04-17.9-4.6-6.48-6.83-14-8.24-22.62-1.21-7.4-3.36-15.54-1.61-24.51Z"/><path class="cls-3" d="M805.56,279.23c1.86-9.49,5.61-16.93,9.77-22.13,5.55-6.94,13.21-9.88,21.44-9.25,6.82,.53,13.93,4.18,21.54,9.86,5.66,4.23,12.96,8.46,18.61,15.52,5.36,6.69,12.9,10.57,22.36,12.79,8.78,2.06,17.99,4.95,26.4,5.97,12.29,1.49,23.42,1.34,25.09,7.69,4.36,3.64,9.45,8.04,14.62,13.71,4.27,4.69,7.44,11.08,12,16.49,6.69,7.94,11.72,15.68,16.14,21.96,8.09,11.48,11.42,18.47,6.7,23-3.24,3.11-10.28,7.08-18.77,5.25-5.85-1.26-11.78-5.8-17.5-10.46-4.71-3.84-7.31-9.81-10.61-16.49-5.06-10.24-11.87-20.13-15.77-29.57-1.69,1.89-3.3,4.41-5.38,6.54-7.04,7.21-14.55,12.91-22.14,16.88-8.71,4.56-17.92,6.82-26.66,7.83-9.55,1.1-18.8-.54-27.43-2.73-8.17-2.07-16.67-3.63-23.51-7.83-7.15-4.38-12.31-11.23-17.04-17.9-4.6-6.48-6.83-14-8.24-22.62-1.21-7.4-3.36-15.54-1.61-24.51Z"/></g><g><path class="cls-4" d="M731.78,293.6c3.08,5.12-2.46,12.82-12.8,21.03-5.65,4.48-13.05,9.09-21.34,14.19-6.75,4.14-14.48,7.98-22.41,12.4-7.19,4.01-13.92,9.65-21.67,13.78-7.27,3.88-14.54,6.92-21.09,10.26-7.56,3.85-15.34,5.74-21.8,8.66-8.29,3.75-14.87,8.66-21.09,10.45-11.1,3.2-20.19,2.65-23.29-2.51-2.81-4.66-.59-14.56,4.39-24.92,3.17-6.62,8.58-13.15,15.09-19.91,5.39-5.59,11.88-10.63,19.65-15.26,6.75-4.02,13.45-9.84,22.05-12.45s17.62-3.74,26.13-6.22,18.02-3.5,26.24-5.58c9.64-2.44,18.2-5.78,25.86-6.88,13.13-1.88,23.2-1.83,26.08,2.96Z"/><path class="cls-3" d="M731.78,293.6c3.08,5.12-2.46,12.82-12.8,21.03-5.65,4.48-13.05,9.09-21.34,14.19-6.75,4.14-14.48,7.98-22.41,12.4-7.19,4.01-13.92,9.65-21.67,13.78-7.27,3.88-14.54,6.92-21.09,10.26-7.56,3.85-15.34,5.74-21.8,8.66-8.29,3.75-14.87,8.66-21.09,10.45-11.1,3.2-20.19,2.65-23.29-2.51-2.81-4.66-.59-14.56,4.39-24.92,3.17-6.62,8.58-13.15,15.09-19.91,5.39-5.59,11.88-10.63,19.65-15.26,6.75-4.02,13.45-9.84,22.05-12.45s17.62-3.74,26.13-6.22,18.02-3.5,26.24-5.58c9.64-2.44,18.2-5.78,25.86-6.88,13.13-1.88,23.2-1.83,26.08,2.96Z"/></g><g><path class="cls-4" d="M667.25,257.52c3.08,5.12-2.46,12.82-12.8,21.03-5.65,4.48-13.05,9.09-21.34,14.19-6.75,4.14-14.48,7.98-22.41,12.4-7.19,4.01-13.92,9.65-21.67,13.78-7.27,3.88-14.54,6.92-21.09,10.26-7.56,3.85-15.34,5.74-21.8,8.66-8.29,3.75-14.87,8.66-21.09,10.45-11.1,3.2-20.19,2.65-23.29-2.51-2.81-4.66-.59-14.56,4.39-24.92,3.17-6.62,8.58-13.15,15.09-19.91,5.39-5.59,11.88-10.63,19.65-15.26,6.75-4.02,13.45-9.84,22.05-12.45,8.51-2.58,17.62-3.74,26.13-6.22s18.02-3.5,26.24-5.58c9.64-2.44,18.2-5.78,25.86-6.88,13.13-1.88,23.2-1.83,26.08,2.96Z"/><path class="cls-3" d="M667.25,257.52c3.08,5.12-2.46,12.82-12.8,21.03-5.65,4.48-13.05,9.09-21.34,14.19-6.75,4.14-14.48,7.98-22.41,12.4-7.19,4.01-13.92,9.65-21.67,13.78-7.27,3.88-14.54,6.92-21.09,10.26-7.56,3.85-15.34,5.74-21.8,8.66-8.29,3.75-14.87,8.66-21.09,10.45-11.1,3.2-20.19,2.65-23.29-2.51-2.81-4.66-.59-14.56,4.39-24.92,3.17-6.62,8.58-13.15,15.09-19.91,5.39-5.59,11.88-10.63,19.65-15.26,6.75-4.02,13.45-9.84,22.05-12.45,8.51-2.58,17.62-3.74,26.13-6.22s18.02-3.5,26.24-5.58c9.64-2.44,18.2-5.78,25.86-6.88,13.13-1.88,23.2-1.83,26.08,2.96Z"/></g><g><g><path class="cls-4" d="M725.25,138.89c-60.71,28.75-120.89,44.45-134.42,35.07s52.73-32.76,85.42-69.03c23.28-25.83,45.49-42.31,110.7-49.96,28.31-3.32-1,55.17-61.71,83.92Z"/><path class="cls-7" d="M693.41,140.28c-43.69,18.65-84.8,29.19-91.82,23.54-7.02-5.65,47.33-16.35,74.44-39.3,19.31-16.34,27.85-35.57,70.78-41.18,18.64-2.43-9.71,38.29-53.4,56.94Z"/><path d="M586.84,177.05c-.25-.15-.49-.3-.72-.46-4.64-3.21-5.79-9.82,15.05-23.06,3.69-2.34,8.06-4.59,12.69-6.98,5.05-2.6,10.28-5.29,15.14-8.37,2.32-1.47,4.68-2.9,7.17-4.42,6.12-3.72,12.45-7.56,17.92-11.77,8.84-6.8,15.21-12.47,20.04-17.82,2.36-2.62,4.19-5.38,5.96-8.05,2.56-3.86,5.21-7.86,9.47-11.36,7.81-6.41,18.33-11.2,28.51-15.83,8.6-3.91,18.8-6.19,29.6-8.6,1.61-.36,3.26-.73,4.93-1.11,2.24-.51,4.52-1.06,6.93-1.64,8.2-1.98,17.49-4.23,28.31-5.5,4.81-.56,8.93,.04,11.91,1.74,7.82,4.46,4.87,14.89,2.41,20.7-3.23,7.64-8.79,16.24-15.65,24.22-6.09,7.08-14.34,14.65-24.5,22.47-8.38,6.45-19.19,12.78-33.06,19.35h0c-4.17,1.97-8.2,4.14-12.11,6.23-5.77,3.1-11.74,6.3-18.18,8.9-9.98,4.02-20.29,7.33-29.39,10.25-1.7,.55-3.38,1.08-5.02,1.62-10.71,3.47-21,5.34-30.07,6.99-2.46,.45-4.79,.87-6.99,1.3-15.4,3.02-32.39,5.82-40.34,1.18Zm204.69-118.72l-.03-.02c-.84-.48-1.78-.61-3.23-.44-9.63,1.13-17.94,3.14-25.98,5.08-2.48,.6-4.82,1.16-7.19,1.7-1.69,.38-3.36,.76-5,1.12-10.28,2.3-19.15,4.28-26.17,7.47-9.42,4.28-19.15,8.71-25.85,14.21-3.37,2.77-5.64,6.2-8.05,9.82-1.89,2.85-3.84,5.79-6.52,8.76-5.15,5.72-11.87,11.7-21.14,18.83-5.93,4.56-12.53,8.57-18.91,12.45-2.45,1.49-4.76,2.9-7,4.31-5.33,3.37-11.06,6.32-16.12,8.92-4.36,2.24-8.47,4.36-11.69,6.4-11.62,7.38-16.9,13.31-13.78,15.47,3.81,2.65,18.22,.26,30.34-2.12,2.34-.46,4.73-.89,7.26-1.35,8.48-1.54,18.09-3.29,27.62-6.38,1.66-.54,3.35-1.08,5.07-1.63,9.25-2.97,18.81-6.03,28.22-9.83,5.67-2.29,11.04-5.17,16.72-8.21,4.05-2.17,8.25-4.42,12.74-6.55,13.02-6.17,23.11-12.06,30.84-18.01,9.7-7.47,17.54-14.65,23.29-21.35,6.49-7.55,11.74-15.67,14.78-22.85,3.93-9.29,2.33-14.32-.24-15.82Z"/></g><g><path class="cls-4" d="M791.27,194.24c-66.09,12.02-128.28,11.58-138.92-.99s59.42-17.97,100.4-44.52c29.19-18.91,54.9-29.07,119.87-19.54,28.21,4.14-15.27,53.02-81.36,65.05Z"/><path class="cls-7" d="M760.16,187.33c-47.03,6.68-89.47,6.2-94.78-1.08-5.32-7.27,49.95-3.52,82.08-18.65,22.89-10.78,36.12-27.13,79.04-21.41,18.63,2.48-19.3,34.46-66.34,41.14Z"/><path d="M647.7,195.2c-.2-.21-.4-.41-.58-.63-3.65-4.31-3.05-10.99,20.51-18.37,4.17-1.31,8.97-2.35,14.06-3.45,5.56-1.2,11.3-2.45,16.8-4.15,2.62-.81,5.27-1.59,8.07-2.4,6.87-2,13.98-4.08,20.36-6.72,10.3-4.28,17.92-8.1,23.97-12.02,2.96-1.92,5.44-4.11,7.84-6.23,3.48-3.07,7.07-6.24,12.09-8.52,9.2-4.17,20.61-6.06,31.64-7.89,9.32-1.55,19.76-1.1,30.81-.63,1.65,.07,3.33,.14,5.05,.21,2.3,.09,4.64,.15,7.12,.21,8.43,.21,17.99,.45,28.77,2.03,4.79,.7,8.62,2.35,11.06,4.77,6.39,6.34,.84,15.64-3.05,20.62-5.1,6.54-12.7,13.4-21.4,19.34-7.72,5.26-17.64,10.43-29.49,15.35-9.77,4.06-21.85,7.37-36.95,10.11h0c-4.54,.83-9,1.87-13.31,2.88-6.38,1.49-12.97,3.04-19.87,3.88-10.68,1.3-21.5,1.82-31.04,2.28-1.78,.09-3.54,.17-5.27,.26-11.25,.57-21.66-.29-30.85-1.05-2.5-.21-4.85-.4-7.09-.56-15.65-1.08-32.79-2.78-39.26-9.32Zm228.47-61.57l-.03-.03c-.69-.68-1.56-1.05-3.01-1.26-9.59-1.41-18.14-1.62-26.41-1.83-2.55-.06-4.96-.13-7.38-.22-1.74-.07-3.44-.14-5.12-.21-10.52-.45-19.61-.83-27.21,.43-10.2,1.69-20.76,3.44-28.65,7.02-3.97,1.8-7.06,4.52-10.32,7.4-2.56,2.26-5.21,4.6-8.57,6.77-6.46,4.18-14.5,8.22-25.3,12.71-6.91,2.87-14.32,5.03-21.49,7.12-2.75,.8-5.35,1.56-7.87,2.34-6.02,1.87-12.32,3.23-17.88,4.44-4.79,1.04-9.31,2.02-12.95,3.15-13.14,4.11-19.77,8.47-17.32,11.37,2.99,3.54,17.53,4.97,29.85,5.82,2.37,.16,4.8,.36,7.36,.58,8.59,.71,18.32,1.51,28.33,1.01,1.74-.09,3.52-.17,5.32-.26,9.7-.47,19.73-.95,29.8-2.17,6.07-.74,12-2.13,18.28-3.6,4.48-1.05,9.11-2.13,14-3.02,14.18-2.58,25.45-5.65,34.46-9.4,11.31-4.7,20.74-9.6,28.03-14.57,8.23-5.61,15.4-12.09,20.2-18.23,6.2-7.95,5.96-13.23,3.87-15.35Z"/></g><g><g><polygon class="cls-1" points="566.04 296.14 565.4 335.21 576.29 339.05 588.61 304.09 566.04 296.14"/><polygon class="cls-1" points="611.18 312.05 588.61 304.09 576.29 339.05 588.75 343.44 611.18 312.05"/></g><g><path class="cls-4" d="M680.13,260.67c-4.19,8.98-7.82,16.73-12.56,22.67-5.86,7.35-12.6,12.51-19.71,16.81s-14.96,7.33-23.72,10.35c-7.48,2.58-16.15,3.48-25.18,6.32-8.34,2.62-16.1,3.49-22.87-.94-6-3.93-11.1-10.76-15.4-18.43-3.65-6.51-6.3-14.27-8.44-22.34-2-7.53-3.3-15.53-3.76-23.56s-1.2-16.32,.1-24.01c1.27-7.53,3.34-14.9,5.77-21.71,2.56-7.17,6.4-13.76,10.4-19.86,4.09-6.23,9.34-11.57,15.12-16.36s12.22-7.48,19.44-10.47c6.43-2.66,13.14-5.79,21.04-6.99,6.83-1.04,14.45-2.12,22.45-1.92,7.65,3.47,13.46,8.86,19.21,12.53,7.23,4.61,12.88,9.12,17.45,14.04,5.76,6.19,10.43,11.84,12.67,18.46,2.45,7.24,3.94,14.85,3.18,22.56-.71,7.18-3.08,14.61-5.71,22.15-2.39,6.86-6.17,13.56-9.49,20.69Z"/><path class="cls-3" d="M680.13,260.67c-4.19,8.98-7.82,16.73-12.56,22.67-5.86,7.35-12.6,12.51-19.71,16.81s-14.96,7.33-23.72,10.35c-7.48,2.58-16.15,3.48-25.18,6.32-8.34,2.62-16.1,3.49-22.87-.94-6-3.93-11.1-10.76-15.4-18.43-3.65-6.51-6.3-14.27-8.44-22.34-2-7.53-3.3-15.53-3.76-23.56s-1.2-16.32,.1-24.01c1.27-7.53,3.34-14.9,5.77-21.71,2.56-7.17,6.4-13.76,10.4-19.86,4.09-6.23,9.34-11.57,15.12-16.36s12.22-7.48,19.44-10.47c6.43-2.66,13.14-5.79,21.04-6.99,6.83-1.04,14.45-2.12,22.45-1.92,7.65,3.47,13.46,8.86,19.21,12.53,7.23,4.61,12.88,9.12,17.45,14.04,5.76,6.19,10.43,11.84,12.67,18.46,2.45,7.24,3.94,14.85,3.18,22.56-.71,7.18-3.08,14.61-5.71,22.15-2.39,6.86-6.17,13.56-9.49,20.69Z"/></g><path class="cls-2" d="M605.24,293.02c-8.5-3.3-12.87,1.82-17.47,8.51-1.63-6.14-.81-10.8-11.04-13.33-7.19-1.78,4.83-12.78,16.49-10.81,15.81,2.67,18.92,18.31,12.02,15.63Z"/><g><path class="cls-8" d="M598.38,236.33c-.72,4.25-2.99,8.08-4.48,11.58-1.78,4.17-4.42,7.42-6.89,10-3.33,3.48-7.03,6.11-10.69,5.49s-6.05-4.42-8.05-8.81c-1.48-3.25-2.04-7.15-2.34-11.67-.26-3.79,.62-7.6,1.34-11.85s1.39-8.03,2.88-11.52c1.78-4.17,2.3-8.77,4.77-11.35,3.33-3.48,7.98-5.9,11.64-5.28s7.63,4.25,9.63,8.64c1.48,3.25,2.52,7.77,2.83,12.3,.26,3.79,.09,8.23-.63,12.48Z"/><g><path class="cls-5" d="M598.57,232.52c-.6,3.52-1.13,7.18-2.41,10.06-1.52,3.42-3.63,6.76-5.76,8.83-2.8,2.72-7.08,4.04-10.17,3.52s-5.03-4.01-6.78-7.5c-1.33-2.66-2.48-5.79-2.79-9.52-.26-3.14,.87-6.34,1.46-9.86s-.18-7.26,1.1-10.13c1.52-3.42,4.19-5.87,6.33-7.94,2.8-2.72,5.74-3.77,8.83-3.24s5.95,2.26,7.7,5.76c1.33,2.66,1.33,6.17,1.64,9.9,.26,3.14,1.44,6.62,.85,10.14Z"/><polygon class="cls-6" points="582.59 226.81 588.81 225 589.69 230.17 587.34 233.91 586.9 239.28 581.97 235.77 578.55 236.39 576.02 234.07 575.79 230.99 571.98 227.42 575.85 225.21 579.55 221.97 582.59 226.81"/></g></g><g><path class="cls-8" d="M654.52,248.83c.03,4.29-.78,7.88-2.2,11.46-1.59,4.02-3.32,7.29-6.24,9.77-3.19,2.71-6.49,4.74-10.61,4.77s-7.5-1.9-10.73-4.57c-2.95-2.44-5.76-5.31-7.4-9.31-1.46-3.56-1.82-7.58-1.85-11.88s1.44-7.86,2.86-11.44c1.59-4.02,3.67-6.84,6.59-9.32,3.19-2.71,6.09-5.84,10.21-5.87s7.77,2.21,10.99,4.89c2.95,2.44,6.19,5.34,7.83,9.34,1.46,3.56,.52,7.87,.55,12.16Z"/><g><path class="cls-5" d="M650.03,245.41c-.89,5.26-4.1,9.39-7.72,12.42-3.88,3.23-8.76,5.94-13.83,5.09s-8.54-5.17-11.14-9.5c-2.43-4.05-4.87-8.95-3.98-14.21s4.54-9.41,8.16-12.43c3.88-3.23,8.85-5.83,13.92-4.97s9.59,4.53,12.19,8.86c2.43,4.05,3.3,9.48,2.41,14.74Z"/><polygon class="cls-6" points="638.64 232.89 640.32 235.95 643.65 238.26 644.28 242.18 643.76 246.24 642.41 250.43 637.24 250.57 633.94 250.63 631.66 249.42 626.26 250.81 625.76 246.48 624.97 242.59 627.56 239.4 631 237.74 630.65 232 634.99 231.69 638.64 232.89"/></g></g></g></g></g></g></svg>