<svg xmlns="http://www.w3.org/2000/svg" xmlns:xlink="http://www.w3.org/1999/xlink" viewBox="0 0 910.61 963.55"><defs><style>.a,.b{fill:#666;}.a{stroke:#000;stroke-miterlimit:10;stroke-width:10px;}.c{fill:url(#a);}.d{fill:url(#b);}</style><linearGradient id="a" x1="454.31" y1="5.25" x2="454.31" y2="295.55" gradientUnits="userSpaceOnUse"><stop offset="0" stop-color="#666" stop-opacity="0"/><stop offset="1"/></linearGradient><linearGradient id="b" x1="454.31" y1="91.25" x2="454.31" y2="963.55" gradientUnits="userSpaceOnUse"><stop offset="0.14" stop-color="#666" stop-opacity="0"/><stop offset="1"/></linearGradient></defs><title>env</title><rect class="a" x="33.87" y="239.55" width="842" height="19"/><rect class="a" x="33.87" y="137.55" width="842" height="19"/><polygon class="b" points="28.87 290.55 28.87 103.57 17.44 76.56 42 18.4 65.24 76.52 54.87 103.48 54.87 290.55 28.87 290.55"/><path d="M41.87,31.55l18,45q-5,13-10,26v183h-16v-183q-5.5-13-11-26l19-45m.25-26.3L32.66,27.66l-9.5,22.5-9.5,22.5L12,76.56l1.65,3.89,5.5,13,4.71,11.13v191h36V104.41L64.2,93.14l5-13,1.41-3.66-1.45-3.64-18-45-9-22.59Z"/><polygon class="b" points="87.87 290.55 87.87 103.57 76.44 76.56 101 18.4 124.24 76.52 113.87 103.48 113.87 290.55 87.87 290.55"/><path d="M100.87,31.55l18,45q-5,13-10,26v183h-16v-183q-5.5-13-11-26l19-45m.25-26.3L91.66,27.66l-9.5,22.5-9.5,22.5L71,76.56l1.65,3.89,5.5,13,4.71,11.13v191h36V104.41l4.33-11.27,5-13,1.41-3.66-1.45-3.64-18-45-9-22.59Z"/><polygon class="b" points="146.87 290.55 146.87 103.57 135.44 76.56 160 18.4 183.24 76.52 172.87 103.48 172.87 290.55 146.87 290.55"/><path d="M159.87,31.55l18,45q-5,13-10,26v183h-16v-183q-5.51-13-11-26l19-45m.25-26.3-9.46,22.41-9.5,22.5-9.5,22.5L130,76.56l1.65,3.89,5.5,13,4.71,11.13v191h36V104.41l4.33-11.27,5-13,1.41-3.66-1.45-3.64-18-45-9-22.59Z"/><polygon class="b" points="205.87 290.55 205.87 103.57 194.44 76.56 219 18.4 242.24 76.52 231.87 103.48 231.87 290.55 205.87 290.55"/><path d="M218.87,31.55l18,45q-5,13-10,26v183h-16v-183q-5.51-13-11-26l19-45m.25-26.3-9.46,22.41-9.5,22.5-9.5,22.5L189,76.56l1.65,3.89,5.5,13,4.71,11.13v191h36V104.41l4.33-11.27,5-13,1.41-3.66-1.45-3.64-18-45-9-22.59Z"/><polygon class="b" points="264.87 290.55 264.87 103.57 253.44 76.56 278 18.4 301.24 76.52 290.87 103.48 290.87 290.55 264.87 290.55"/><path d="M277.87,31.55l18,45q-5,13-10,26v183h-16v-183q-5.5-13-11-26l19-45m.25-26.3-9.46,22.41-9.5,22.5-9.5,22.5L248,76.56l1.65,3.89,5.5,13,4.71,11.13v191h36V104.41l4.33-11.27,5-13,1.41-3.66-1.45-3.64-18-45-9-22.59Z"/><polygon class="b" points="323.87 290.55 323.87 103.57 312.44 76.56 337 18.4 360.24 76.52 349.87 103.48 349.87 290.55 323.87 290.55"/><path d="M336.87,31.55l18,45q-5,13-10,26v183h-16v-183q-5.5-13-11-26l19-45m.25-26.3-9.46,22.41-9.5,22.5-9.5,22.5L307,76.56l1.65,3.89,5.5,13,4.71,11.13v191h36V104.41l4.33-11.27,5-13,1.41-3.66-1.45-3.64-18-45-9-22.59Z"/><polygon class="b" points="382.87 290.55 382.87 103.57 371.44 76.56 396 18.4 419.24 76.52 408.87 103.48 408.87 290.55 382.87 290.55"/><path d="M395.87,31.55l18,45q-5,13-10,26v183h-16v-183q-5.5-13-11-26l19-45m.25-26.3-9.46,22.41-9.5,22.5-9.5,22.5L366,76.56l1.65,3.89,5.5,13,4.71,11.13v191h36V104.41l4.33-11.27,5-13,1.41-3.66-1.45-3.64-18-45-9-22.59Z"/><polygon class="b" points="441.87 290.55 441.87 103.57 430.44 76.56 455 18.4 478.24 76.52 467.87 103.48 467.87 290.55 441.87 290.55"/><path d="M454.87,31.55l18,45q-5,13-10,26v183h-16v-183q-5.5-13-11-26l19-45m.25-26.3-9.46,22.41-9.5,22.5-9.5,22.5L425,76.56l1.65,3.89,5.5,13,4.71,11.13v191h36V104.41l4.33-11.27,5-13,1.41-3.66-1.45-3.64-18-45-9-22.59Z"/><polygon class="b" points="500.87 290.55 500.87 103.57 489.44 76.56 514 18.4 537.24 76.52 526.87 103.48 526.87 290.55 500.87 290.55"/><path d="M513.87,31.55l18,45q-5,13-10,26v183h-16v-183q-5.5-13-11-26l19-45m.25-26.3-9.46,22.41-9.5,22.5-9.5,22.5L484,76.56l1.65,3.89,5.5,13,4.71,11.13v191h36V104.41l4.33-11.27,5-13,1.41-3.66-1.45-3.64-18-45-9-22.59Z"/><polygon class="b" points="559.87 290.55 559.87 103.57 548.44 76.56 573 18.4 596.24 76.52 585.87 103.48 585.87 290.55 559.87 290.55"/><path d="M572.87,31.55l18,45q-5,13-10,26v183h-16v-183q-5.5-13-11-26l19-45m.25-26.3-9.46,22.41-9.5,22.5-9.5,22.5L543,76.56l1.65,3.89,5.5,13,4.71,11.13v191h36V104.41l4.33-11.27,5-13,1.41-3.66-1.45-3.64-18-45-9-22.59Z"/><polygon class="b" points="618.87 290.55 618.87 103.57 607.44 76.56 632 18.4 655.24 76.52 644.87 103.48 644.87 290.55 618.87 290.55"/><path d="M631.87,31.55l18,45q-5,13-10,26v183h-16v-183q-5.5-13-11-26l19-45m.25-26.3-9.46,22.41-9.5,22.5-9.5,22.5L602,76.56l1.65,3.89,5.5,13,4.71,11.13v191h36V104.41l4.33-11.27,5-13,1.41-3.66-1.45-3.64-18-45-9-22.59Z"/><polygon class="b" points="677.87 290.55 677.87 103.57 666.44 76.56 691 18.4 714.24 76.52 703.87 103.48 703.87 290.55 677.87 290.55"/><path d="M690.87,31.55l18,45q-5,13-10,26v183h-16v-183q-5.5-13-11-26l19-45m.25-26.3-9.46,22.41-9.5,22.5-9.5,22.5L661,76.56l1.65,3.89,5.5,13,4.71,11.13v191h36V104.41l4.33-11.27,5-13,1.41-3.66-1.45-3.64-18-45-9-22.59Z"/><polygon class="b" points="736.87 290.55 736.87 103.57 725.44 76.56 750 18.4 773.24 76.52 762.87 103.48 762.87 290.55 736.87 290.55"/><path d="M749.87,31.55l18,45q-5,13-10,26v183h-16v-183q-5.5-13-11-26l19-45m.25-26.3-9.46,22.41-9.5,22.5-9.5,22.5L720,76.56l1.65,3.89,5.5,13,4.71,11.13v191h36V104.41l4.33-11.27,5-13,1.41-3.66-1.45-3.64-18-45-9-22.59Z"/><polygon class="b" points="795.87 290.55 795.87 103.57 784.44 76.56 809 18.4 832.24 76.52 821.87 103.48 821.87 290.55 795.87 290.55"/><path d="M808.87,31.55l18,45q-5,13-10,26v183h-16v-183q-5.5-13-11-26l19-45m.25-26.3-9.46,22.41-9.5,22.5-9.5,22.5L779,76.56l1.65,3.89,5.5,13,4.71,11.13v191h36V104.41l4.33-11.27,5-13,1.41-3.66-1.45-3.64-18-45-9-22.59Z"/><polygon class="b" points="854.87 290.55 854.87 103.57 843.44 76.56 868 18.4 891.24 76.52 880.87 103.48 880.87 290.55 854.87 290.55"/><path d="M867.87,31.55l18,45q-5,13-10,26v183h-16v-183q-5.5-13-11-26l19-45m.25-26.3-9.46,22.41-9.5,22.5-9.5,22.5L838,76.56l1.65,3.89,5.5,13,4.71,11.13v191h36V104.41l4.33-11.27,5-13,1.41-3.66-1.45-3.64-18-45-9-22.59Z"/><path class="c" d="M895.16,72.84l-18-45-9-22.59-9.46,22.41-9.5,22.5-9.5,22.5L838,76.56l1.65,3.89,5.5,13,4.71,11.13v28h-23V104.41l4.33-11.27,5-13,1.41-3.66-1.45-3.64-18-45-9-22.59-9.46,22.41-9.5,22.5-9.5,22.5L779,76.56l1.65,3.89,5.5,13,4.71,11.13v28h-23V104.41l4.33-11.27,5-13,1.41-3.66-1.45-3.64-18-45-9-22.59-9.46,22.41-9.5,22.5-9.5,22.5L720,76.56l1.65,3.89,5.5,13,4.71,11.13v28h-23V104.41l4.33-11.27,5-13,1.41-3.66-1.45-3.64-18-45-9-22.59-9.46,22.41-9.5,22.5-9.5,22.5L661,76.56l1.65,3.89,5.5,13,4.71,11.13v28h-23V104.41l4.33-11.27,5-13,1.41-3.66-1.45-3.64-18-45-9-22.59-9.46,22.41-9.5,22.5-9.5,22.5L602,76.56l1.65,3.89,5.5,13,4.71,11.13v28h-23V104.41l4.33-11.27,5-13,1.41-3.66-1.45-3.64-18-45-9-22.59-9.46,22.41-9.5,22.5-9.5,22.5L543,76.56l1.65,3.89,5.5,13,4.71,11.13v28h-23V104.41l4.33-11.27,5-13,1.41-3.66-1.45-3.64-18-45-9-22.59-9.46,22.41-9.5,22.5-9.5,22.5L484,76.56l1.65,3.89,5.5,13,4.71,11.13v28h-23V104.41l4.33-11.27,5-13,1.41-3.66-1.45-3.64-18-45-9-22.59-9.46,22.41-9.5,22.5-9.5,22.5L425,76.56l1.65,3.89,5.5,13,4.71,11.13v28h-23V104.41l4.33-11.27,5-13,1.41-3.66-1.45-3.64-18-45-9-22.59-9.46,22.41-9.5,22.5-9.5,22.5L366,76.56l1.65,3.89,5.5,13,4.71,11.13v28h-23V104.41l4.33-11.27,5-13,1.41-3.66-1.45-3.64-18-45-9-22.59-9.46,22.41-9.5,22.5-9.5,22.5L307,76.56l1.65,3.89,5.5,13,4.71,11.13v28h-23V104.41l4.33-11.27,5-13,1.41-3.66-1.45-3.64-18-45-9-22.59-9.46,22.41-9.5,22.5-9.5,22.5L248,76.56l1.65,3.89,5.5,13,4.71,11.13v28h-23V104.41l4.33-11.27,5-13,1.41-3.66-1.45-3.64-18-45-9-22.59-9.46,22.41-9.5,22.5-9.5,22.5L189,76.56l1.65,3.89,5.5,13,4.71,11.13v28h-23V104.41l4.33-11.27,5-13,1.41-3.66-1.45-3.64-18-45-9-22.59-9.46,22.41-9.5,22.5-9.5,22.5L130,76.56l1.65,3.89,5.5,13,4.71,11.13v28h-23V104.41l4.33-11.27,5-13,1.41-3.66-1.45-3.64-18-45-9-22.59L91.66,27.66l-9.5,22.5-9.5,22.5L71,76.56l1.65,3.89,5.5,13,4.71,11.13v28h-23V104.41L64.2,93.14l5-13,1.41-3.66-1.45-3.64-18-45-9-22.59L32.66,27.66l-9.5,22.5-9.5,22.5L12,76.56l1.65,3.89,5.5,13,4.71,11.13v191h36v-32h23v32h36v-32h23v32h36v-32h23v32h36v-32h23v32h36v-32h23v32h36v-32h23v32h36v-32h23v32h36v-32h23v32h36v-32h23v32h36v-32h23v32h36v-32h23v32h36v-32h23v32h36v-32h23v32h36v-32h23v32h36V104.41l4.33-11.27,5-13,1.41-3.66ZM59.87,161.55h23v73h-23Zm59,0h23v73h-23Zm59,0h23v73h-23Zm59,0h23v73h-23Zm59,0h23v73h-23Zm59,0h23v73h-23Zm59,0h23v73h-23Zm59,0h23v73h-23Zm59,0h23v73h-23Zm59,0h23v73h-23Zm59,0h23v73h-23Zm59,0h23v73h-23Zm59,0h23v73h-23Zm59,0h23v73h-23Z"/><polygon class="b" points="28.87 376.55 28.87 189.57 17.44 162.56 42 104.4 65.24 162.52 54.87 189.48 54.87 376.55 28.87 376.55"/><path d="M41.87,117.55l18,45q-5,13-10,26v183h-16v-183q-5.5-13-11-26l19-45m.25-26.3-9.46,22.41-9.5,22.5-9.5,22.5L12,162.56l1.65,3.89,5.5,13,4.71,11.13v191h36V190.41l4.33-11.27,5-13,1.41-3.66-1.45-3.64-18-45-9-22.59Z"/><polygon class="b" points="28.87 473.55 28.87 286.57 17.44 259.56 42 201.4 65.24 259.52 54.87 286.48 54.87 473.55 28.87 473.55"/><path d="M41.87,214.55l18,45q-5,13-10,26v183h-16v-183q-5.5-13-11-26l19-45m.25-26.3-9.46,22.41-9.5,22.5-9.5,22.5L12,259.56l1.65,3.89,5.5,13,4.71,11.13v191h36V287.41l4.33-11.27,5-13,1.41-3.66-1.45-3.64-18-45-9-22.59Z"/><polygon class="b" points="28.87 570.55 28.87 383.57 17.44 356.56 42 298.4 65.24 356.52 54.87 383.48 54.87 570.55 28.87 570.55"/><path d="M41.87,311.55l18,45q-5,13-10,26v183h-16v-183q-5.5-13-11-26l19-45m.25-26.3-9.46,22.41-9.5,22.5-9.5,22.5L12,356.56l1.65,3.89,5.5,13,4.71,11.13v191h36V384.41l4.33-11.27,5-13,1.41-3.66-1.45-3.64-18-45-9-22.59Z"/><polygon class="b" points="28.87 667.55 28.87 480.57 17.44 453.56 42 395.4 65.24 453.52 54.87 480.48 54.87 667.55 28.87 667.55"/><path d="M41.87,408.55l18,45q-5,13-10,26v183h-16v-183q-5.5-13-11-26l19-45m.25-26.3-9.46,22.41-9.5,22.5-9.5,22.5L12,453.56l1.65,3.89,5.5,13,4.71,11.13v191h36V481.41l4.33-11.27,5-13,1.41-3.66-1.45-3.64-18-45-9-22.59Z"/><polygon class="b" points="28.87 764.55 28.87 577.57 17.44 550.56 42 492.4 65.24 550.52 54.87 577.48 54.87 764.55 28.87 764.55"/><path d="M41.87,505.55l18,45q-5,13-10,26v183h-16v-183q-5.5-13-11-26l19-45m.25-26.3-9.46,22.41-9.5,22.5-9.5,22.5L12,550.56l1.65,3.89,5.5,13,4.71,11.13v191h36V578.41l4.33-11.27,5-13,1.41-3.66-1.45-3.64-18-45-9-22.59Z"/><polygon class="b" points="28.87 861.55 28.87 674.57 17.44 647.56 42 589.4 65.24 647.52 54.87 674.48 54.87 861.55 28.87 861.55"/><path d="M41.87,602.55l18,45q-5,13-10,26v183h-16v-183q-5.5-13-11-26l19-45m.25-26.3-9.46,22.41-9.5,22.5-9.5,22.5L12,647.56l1.65,3.89,5.5,13,4.71,11.13v191h36V675.41l4.33-11.27,5-13,1.41-3.66-1.45-3.64-18-45-9-22.59Z"/><rect class="a" x="33.87" y="907.55" width="842" height="19"/><rect class="a" x="33.87" y="805.55" width="842" height="19"/><polygon class="b" points="28.87 958.55 28.87 771.57 17.44 744.56 42 686.4 65.24 744.52 54.87 771.48 54.87 958.55 28.87 958.55"/><path d="M41.87,699.55l18,45q-5,13-10,26v183h-16v-183q-5.5-13-11-26l19-45m.25-26.3-9.46,22.41-9.5,22.5-9.5,22.5L12,744.56l1.65,3.89,5.5,13,4.71,11.13v191h36V772.41l4.33-11.27,5-13,1.41-3.66-1.45-3.64-18-45-9-22.59Z"/><polygon class="b" points="87.87 958.55 87.87 771.57 76.44 744.56 101 686.4 124.24 744.52 113.87 771.48 113.87 958.55 87.87 958.55"/><path d="M100.87,699.55l18,45q-5,13-10,26v183h-16v-183q-5.5-13-11-26l19-45m.25-26.3-9.46,22.41-9.5,22.5-9.5,22.5L71,744.56l1.65,3.89,5.5,13,4.71,11.13v191h36V772.41l4.33-11.27,5-13,1.41-3.66-1.45-3.64-18-45-9-22.59Z"/><polygon class="b" points="146.87 958.55 146.87 771.57 135.44 744.56 160 686.4 183.24 744.52 172.87 771.48 172.87 958.55 146.87 958.55"/><path d="M159.87,699.55l18,45q-5,13-10,26v183h-16v-183q-5.51-13-11-26l19-45m.25-26.3-9.46,22.41-9.5,22.5-9.5,22.5-1.65,3.9,1.65,3.89,5.5,13,4.71,11.13v191h36V772.41l4.33-11.27,5-13,1.41-3.66-1.45-3.64-18-45-9-22.59Z"/><polygon class="b" points="205.87 958.55 205.87 771.57 194.44 744.56 219 686.4 242.24 744.52 231.87 771.48 231.87 958.55 205.87 958.55"/><path d="M218.87,699.55l18,45q-5,13-10,26v183h-16v-183q-5.51-13-11-26l19-45m.25-26.3-9.46,22.41-9.5,22.5-9.5,22.5-1.65,3.9,1.65,3.89,5.5,13,4.71,11.13v191h36V772.41l4.33-11.27,5-13,1.41-3.66-1.45-3.64-18-45-9-22.59Z"/><polygon class="b" points="264.87 958.55 264.87 771.57 253.44 744.56 278 686.4 301.24 744.52 290.87 771.48 290.87 958.55 264.87 958.55"/><path d="M277.87,699.55l18,45q-5,13-10,26v183h-16v-183q-5.5-13-11-26l19-45m.25-26.3-9.46,22.41-9.5,22.5-9.5,22.5-1.65,3.9,1.65,3.89,5.5,13,4.71,11.13v191h36V772.41l4.33-11.27,5-13,1.41-3.66-1.45-3.64-18-45-9-22.59Z"/><polygon class="b" points="323.87 958.55 323.87 771.57 312.44 744.56 337 686.4 360.24 744.52 349.87 771.48 349.87 958.55 323.87 958.55"/><path d="M336.87,699.55l18,45q-5,13-10,26v183h-16v-183q-5.5-13-11-26l19-45m.25-26.3-9.46,22.41-9.5,22.5-9.5,22.5-1.65,3.9,1.65,3.89,5.5,13,4.71,11.13v191h36V772.41l4.33-11.27,5-13,1.41-3.66-1.45-3.64-18-45-9-22.59Z"/><polygon class="b" points="382.87 958.55 382.87 771.57 371.44 744.56 396 686.4 419.24 744.52 408.87 771.48 408.87 958.55 382.87 958.55"/><path d="M395.87,699.55l18,45q-5,13-10,26v183h-16v-183q-5.5-13-11-26l19-45m.25-26.3-9.46,22.41-9.5,22.5-9.5,22.5-1.65,3.9,1.65,3.89,5.5,13,4.71,11.13v191h36V772.41l4.33-11.27,5-13,1.41-3.66-1.45-3.64-18-45-9-22.59Z"/><polygon class="b" points="441.87 958.55 441.87 771.57 430.44 744.56 455 686.4 478.24 744.52 467.87 771.48 467.87 958.55 441.87 958.55"/><path d="M454.87,699.55l18,45q-5,13-10,26v183h-16v-183q-5.5-13-11-26l19-45m.25-26.3-9.46,22.41-9.5,22.5-9.5,22.5-1.65,3.9,1.65,3.89,5.5,13,4.71,11.13v191h36V772.41l4.33-11.27,5-13,1.41-3.66-1.45-3.64-18-45-9-22.59Z"/><polygon class="b" points="500.87 958.55 500.87 771.57 489.44 744.56 514 686.4 537.24 744.52 526.87 771.48 526.87 958.55 500.87 958.55"/><path d="M513.87,699.55l18,45q-5,13-10,26v183h-16v-183q-5.5-13-11-26l19-45m.25-26.3-9.46,22.41-9.5,22.5-9.5,22.5-1.65,3.9,1.65,3.89,5.5,13,4.71,11.13v191h36V772.41l4.33-11.27,5-13,1.41-3.66-1.45-3.64-18-45-9-22.59Z"/><polygon class="b" points="559.87 958.55 559.87 771.57 548.44 744.56 573 686.4 596.24 744.52 585.87 771.48 585.87 958.55 559.87 958.55"/><path d="M572.87,699.55l18,45q-5,13-10,26v183h-16v-183q-5.5-13-11-26l19-45m.25-26.3-9.46,22.41-9.5,22.5-9.5,22.5-1.65,3.9,1.65,3.89,5.5,13,4.71,11.13v191h36V772.41l4.33-11.27,5-13,1.41-3.66-1.45-3.64-18-45-9-22.59Z"/><polygon class="b" points="618.87 958.55 618.87 771.57 607.44 744.56 632 686.4 655.24 744.52 644.87 771.48 644.87 958.55 618.87 958.55"/><path d="M631.87,699.55l18,45q-5,13-10,26v183h-16v-183q-5.5-13-11-26l19-45m.25-26.3-9.46,22.41-9.5,22.5-9.5,22.5-1.65,3.9,1.65,3.89,5.5,13,4.71,11.13v191h36V772.41l4.33-11.27,5-13,1.41-3.66-1.45-3.64-18-45-9-22.59Z"/><polygon class="b" points="677.87 958.55 677.87 771.57 666.44 744.56 691 686.4 714.24 744.52 703.87 771.48 703.87 958.55 677.87 958.55"/><path d="M690.87,699.55l18,45q-5,13-10,26v183h-16v-183q-5.5-13-11-26l19-45m.25-26.3-9.46,22.41-9.5,22.5-9.5,22.5-1.65,3.9,1.65,3.89,5.5,13,4.71,11.13v191h36V772.41l4.33-11.27,5-13,1.41-3.66-1.45-3.64-18-45-9-22.59Z"/><polygon class="b" points="736.87 958.55 736.87 771.57 725.44 744.56 750 686.4 773.24 744.52 762.87 771.48 762.87 958.55 736.87 958.55"/><path d="M749.87,699.55l18,45q-5,13-10,26v183h-16v-183q-5.5-13-11-26l19-45m.25-26.3-9.46,22.41-9.5,22.5-9.5,22.5-1.65,3.9,1.65,3.89,5.5,13,4.71,11.13v191h36V772.41l4.33-11.27,5-13,1.41-3.66-1.45-3.64-18-45-9-22.59Z"/><polygon class="b" points="795.87 958.55 795.87 771.57 784.44 744.56 809 686.4 832.24 744.52 821.87 771.48 821.87 958.55 795.87 958.55"/><path d="M808.87,699.55l18,45q-5,13-10,26v183h-16v-183q-5.5-13-11-26l19-45m.25-26.3-9.46,22.41-9.5,22.5-9.5,22.5-1.65,3.9,1.65,3.89,5.5,13,4.71,11.13v191h36V772.41l4.33-11.27,5-13,1.41-3.66-1.45-3.64-18-45-9-22.59Z"/><polygon class="b" points="854.87 376.55 854.87 189.57 843.44 162.56 868 104.4 891.24 162.52 880.87 189.48 880.87 376.55 854.87 376.55"/><path d="M867.87,117.55l18,45q-5,13-10,26v183h-16v-183q-5.5-13-11-26l19-45m.25-26.3-9.46,22.41-9.5,22.5-9.5,22.5-1.65,3.9,1.65,3.89,5.5,13,4.71,11.13v191h36V190.41l4.33-11.27,5-13,1.41-3.66-1.45-3.64-18-45-9-22.59Z"/><polygon class="b" points="854.87 473.55 854.87 286.57 843.44 259.56 868 201.4 891.24 259.52 880.87 286.48 880.87 473.55 854.87 473.55"/><path d="M867.87,214.55l18,45q-5,13-10,26v183h-16v-183q-5.5-13-11-26l19-45m.25-26.3-9.46,22.41-9.5,22.5-9.5,22.5-1.65,3.9,1.65,3.89,5.5,13,4.71,11.13v191h36V287.41l4.33-11.27,5-13,1.41-3.66-1.45-3.64-18-45-9-22.59Z"/><polygon class="b" points="854.87 570.55 854.87 383.57 843.44 356.56 868 298.4 891.24 356.52 880.87 383.48 880.87 570.55 854.87 570.55"/><path d="M867.87,311.55l18,45q-5,13-10,26v183h-16v-183q-5.5-13-11-26l19-45m.25-26.3-9.46,22.41-9.5,22.5-9.5,22.5-1.65,3.9,1.65,3.89,5.5,13,4.71,11.13v191h36V384.41l4.33-11.27,5-13,1.41-3.66-1.45-3.64-18-45-9-22.59Z"/><polygon class="b" points="854.87 667.55 854.87 480.57 843.44 453.56 868 395.4 891.24 453.52 880.87 480.48 880.87 667.55 854.87 667.55"/><path d="M867.87,408.55l18,45q-5,13-10,26v183h-16v-183q-5.5-13-11-26l19-45m.25-26.3-9.46,22.41-9.5,22.5-9.5,22.5-1.65,3.9,1.65,3.89,5.5,13,4.71,11.13v191h36V481.41l4.33-11.27,5-13,1.41-3.66-1.45-3.64-18-45-9-22.59Z"/><polygon class="b" points="854.87 764.55 854.87 577.57 843.44 550.56 868 492.4 891.24 550.52 880.87 577.48 880.87 764.55 854.87 764.55"/><path d="M867.87,505.55l18,45q-5,13-10,26v183h-16v-183q-5.5-13-11-26l19-45m.25-26.3-9.46,22.41-9.5,22.5-9.5,22.5-1.65,3.9,1.65,3.89,5.5,13,4.71,11.13v191h36V578.41l4.33-11.27,5-13,1.41-3.66-1.45-3.64-18-45-9-22.59Z"/><polygon class="b" points="854.87 861.55 854.87 674.57 843.44 647.56 868 589.4 891.24 647.52 880.87 674.48 880.87 861.55 854.87 861.55"/><path d="M867.87,602.55l18,45q-5,13-10,26v183h-16v-183q-5.5-13-11-26l19-45m.25-26.3-9.46,22.41-9.5,22.5-9.5,22.5-1.65,3.9,1.65,3.89,5.5,13,4.71,11.13v191h36V675.41l4.33-11.27,5-13,1.41-3.66-1.45-3.64-18-45-9-22.59Z"/><polygon class="b" points="854.87 958.55 854.87 771.57 843.44 744.56 868 686.4 891.24 744.52 880.87 771.48 880.87 958.55 854.87 958.55"/><path d="M867.87,699.55l18,45q-5,13-10,26v183h-16v-183q-5.5-13-11-26l19-45m.25-26.3-9.46,22.41-9.5,22.5-9.5,22.5-1.65,3.9,1.65,3.89,5.5,13,4.71,11.13v191h36V772.41l4.33-11.27,5-13,1.41-3.66-1.45-3.64-18-45-9-22.59Z"/><path class="d" d="M890.2,276.14l5-13,1.41-3.66-1.45-3.64-9.29-23.21V190.41l4.33-11.27,5-13,1.41-3.66-1.45-3.64-18-45-9-22.59-9.46,22.41-9.5,22.5-9.5,22.5-1.65,3.9,1.65,3.89,5.5,13,4.71,11.13v40.9l-.71,1.68-9.5,22.5-1.65,3.9,1.65,3.89,5.5,13,4.71,11.13v40.9l-.71,1.68-9.5,22.5-1.65,3.9,1.65,3.89,5.5,13,4.71,11.13v40.9l-.71,1.68-9.5,22.5-1.65,3.9,1.65,3.89,5.5,13,4.71,11.13v40.9l-.71,1.68-9.5,22.5-1.65,3.9,1.65,3.89,5.5,13,4.71,11.13v40.9l-.71,1.68-9.5,22.5-1.65,3.9,1.65,3.89,5.5,13,4.71,11.13v40.9l-.71,1.68-9.5,22.5-1.65,3.9,1.65,3.89,5.5,13,4.71,11.13v28h-23V772.41l4.33-11.27,5-13,1.41-3.66-1.45-3.64-18-45-9-22.59-9.46,22.41-9.5,22.5-9.5,22.5-1.65,3.9,1.65,3.89,5.5,13,4.71,11.13v28h-23V772.41l4.33-11.27,5-13,1.41-3.66-1.45-3.64-18-45-9-22.59-9.46,22.41-9.5,22.5-9.5,22.5-1.65,3.9,1.65,3.89,5.5,13,4.71,11.13v28h-23V772.41l4.33-11.27,5-13,1.41-3.66-1.45-3.64-18-45-9-22.59-9.46,22.41-9.5,22.5-9.5,22.5-1.65,3.9,1.65,3.89,5.5,13,4.71,11.13v28h-23V772.41l4.33-11.27,5-13,1.41-3.66-1.45-3.64-18-45-9-22.59-9.46,22.41-9.5,22.5-9.5,22.5-1.65,3.9,1.65,3.89,5.5,13,4.71,11.13v28h-23V772.41l4.33-11.27,5-13,1.41-3.66-1.45-3.64-18-45-9-22.59-9.46,22.41-9.5,22.5-9.5,22.5-1.65,3.9,1.65,3.89,5.5,13,4.71,11.13v28h-23V772.41l4.33-11.27,5-13,1.41-3.66-1.45-3.64-18-45-9-22.59-9.46,22.41-9.5,22.5-9.5,22.5-1.65,3.9,1.65,3.89,5.5,13,4.71,11.13v28h-23V772.41l4.33-11.27,5-13,1.41-3.66-1.45-3.64-18-45-9-22.59-9.46,22.41-9.5,22.5-9.5,22.5-1.65,3.9,1.65,3.89,5.5,13,4.71,11.13v28h-23V772.41l4.33-11.27,5-13,1.41-3.66-1.45-3.64-18-45-9-22.59-9.46,22.41-9.5,22.5-9.5,22.5-1.65,3.9,1.65,3.89,5.5,13,4.71,11.13v28h-23V772.41l4.33-11.27,5-13,1.41-3.66-1.45-3.64-18-45-9-22.59-9.46,22.41-9.5,22.5-9.5,22.5-1.65,3.9,1.65,3.89,5.5,13,4.71,11.13v28h-23V772.41l4.33-11.27,5-13,1.41-3.66-1.45-3.64-18-45-9-22.59-9.46,22.41-9.5,22.5-9.5,22.5-1.65,3.9,1.65,3.89,5.5,13,4.71,11.13v28h-23V772.41l4.33-11.27,5-13,1.41-3.66-1.45-3.64-18-45-9-22.59-9.46,22.41-9.5,22.5-9.5,22.5-1.65,3.9,1.65,3.89,5.5,13,4.71,11.13v28h-23V772.41l4.33-11.27,5-13,1.41-3.66-1.45-3.64-18-45-9-22.59-9.46,22.41-9.5,22.5-9.5,22.5-1.65,3.9,1.65,3.89,5.5,13,4.71,11.13v28h-23V772.41l4.33-11.27,5-13,1.41-3.66-1.45-3.64-18-45-9-22.59-9.46,22.41-9.5,22.5-9.5,22.5L71,744.56l1.65,3.89,5.5,13,4.71,11.13v28h-23V772.41l4.33-11.27,5-13,1.41-3.66-1.45-3.64-9.29-23.21V675.41l4.33-11.27,5-13,1.41-3.66-1.45-3.64-9.29-23.21V578.41l4.33-11.27,5-13,1.41-3.66-1.45-3.64-9.29-23.21V481.41l4.33-11.27,5-13,1.41-3.66-1.45-3.64-9.29-23.21V384.41l4.33-11.27,5-13,1.41-3.66-1.45-3.64-9.29-23.21V287.41l4.33-11.27,5-13,1.41-3.66-1.45-3.64-9.29-23.21V190.41l4.33-11.27,5-13,1.41-3.66-1.45-3.64-18-45-9-22.59-9.46,22.41-9.5,22.5-9.5,22.5L12,162.56l1.65,3.89,5.5,13,4.71,11.13v40.9l-.71,1.68-9.5,22.5L12,259.56l1.65,3.89,5.5,13,4.71,11.13v40.9l-.71,1.68-9.5,22.5L12,356.56l1.65,3.89,5.5,13,4.71,11.13v40.9l-.71,1.68-9.5,22.5L12,453.56l1.65,3.89,5.5,13,4.71,11.13v40.9l-.71,1.68-9.5,22.5L12,550.56l1.65,3.89,5.5,13,4.71,11.13v40.9l-.71,1.68-9.5,22.5L12,647.56l1.65,3.89,5.5,13,4.71,11.13v40.9l-.71,1.68-9.5,22.5L12,744.56l1.65,3.89,5.5,13,4.71,11.13v191h36v-32h23v32h36v-32h23v32h36v-32h23v32h36v-32h23v32h36v-32h23v32h36v-32h23v32h36v-32h23v32h36v-32h23v32h36v-32h23v32h36v-32h23v32h36v-32h23v32h36v-32h23v32h36v-32h23v32h36v-32h23v32h36V772.41l4.33-11.27,5-13,1.41-3.66-1.45-3.64-9.29-23.21V675.41l4.33-11.27,5-13,1.41-3.66-1.45-3.64-9.29-23.21V578.41l4.33-11.27,5-13,1.41-3.66-1.45-3.64-9.29-23.21V481.41l4.33-11.27,5-13,1.41-3.66-1.45-3.64-9.29-23.21V384.41l4.33-11.27,5-13,1.41-3.66-1.45-3.64-9.29-23.21V287.41ZM849.87,866.55v36h-23v-73h23v37Zm-790-10v-27h23v73h-23v-46Zm59-27h23v73h-23Zm59,0h23v73h-23Zm59,0h23v73h-23Zm59,0h23v73h-23Zm59,0h23v73h-23Zm59,0h23v73h-23Zm59,0h23v73h-23Zm59,0h23v73h-23Zm59,0h23v73h-23Zm59,0h23v73h-23Zm59,0h23v73h-23Zm59,0h23v73h-23Z"/></svg>